G75*
%MOIN*%
%OFA0B0*%
%FSLAX25Y25*%
%IPPOS*%
%LPD*%
%AMOC8*
5,1,8,0,0,1.08239X$1,22.5*
%
%ADD10C,0.00394*%
%ADD11C,0.00000*%
%ADD12R,0.05906X0.07874*%
%ADD13R,0.13780X0.06299*%
%ADD14C,0.01181*%
%ADD15R,0.08661X0.02362*%
%ADD16R,0.03937X0.05512*%
%ADD17R,0.07087X0.04724*%
%ADD18C,0.40000*%
D10*
X0044761Y0055133D02*
X0042859Y0059260D01*
X0042135Y0061350D01*
X0041053Y0065507D01*
X0040695Y0067573D01*
X0040476Y0069589D01*
X0040257Y0071604D01*
X0040176Y0073569D01*
X0040190Y0075445D01*
X0040204Y0077320D01*
X0040313Y0079106D01*
X0040472Y0080764D01*
X0040630Y0082423D01*
X0040840Y0083953D01*
X0041055Y0085316D01*
X0041271Y0086680D01*
X0041492Y0087877D01*
X0041676Y0088868D01*
X0041818Y0089637D01*
X0041888Y0090471D01*
X0041898Y0091351D01*
X0041907Y0092231D01*
X0041855Y0093157D01*
X0041754Y0094113D01*
X0041653Y0095068D01*
X0041503Y0096051D01*
X0041316Y0097046D01*
X0041128Y0098041D01*
X0040903Y0099046D01*
X0040652Y0100044D01*
X0040401Y0101043D01*
X0040124Y0102034D01*
X0039832Y0103000D01*
X0039541Y0103967D01*
X0039235Y0104908D01*
X0038927Y0105807D01*
X0038618Y0106705D01*
X0038307Y0107562D01*
X0038005Y0108357D01*
X0037703Y0109152D01*
X0037410Y0109887D01*
X0037137Y0110544D01*
X0037043Y0110539D01*
X0036947Y0110534D01*
X0036848Y0110530D01*
X0036749Y0110525D01*
X0036647Y0110521D01*
X0036544Y0110517D01*
X0036440Y0110513D01*
X0036334Y0110509D01*
X0036225Y0110505D01*
X0036117Y0110502D01*
X0036006Y0110498D01*
X0035893Y0110495D01*
X0035781Y0110492D01*
X0035666Y0110489D01*
X0035548Y0110487D01*
X0035431Y0110485D01*
X0035312Y0110483D01*
X0035191Y0110481D01*
X0035069Y0110479D01*
X0034946Y0110478D01*
X0034821Y0110477D01*
X0034695Y0110476D01*
X0034568Y0110476D01*
X0033686Y0110476D01*
X0032854Y0110492D01*
X0031961Y0110534D01*
X0031068Y0110576D01*
X0030115Y0110644D01*
X0029120Y0110748D01*
X0028125Y0110851D01*
X0027089Y0110990D01*
X0026029Y0111174D01*
X0024970Y0111357D01*
X0023887Y0111586D01*
X0022800Y0111869D01*
X0021713Y0112152D01*
X0020622Y0112490D01*
X0019545Y0112892D01*
X0018468Y0113294D01*
X0017406Y0113760D01*
X0015347Y0114839D01*
X0014351Y0115452D01*
X0013406Y0116149D01*
X0012462Y0116845D01*
X0011569Y0117625D01*
X0010747Y0118497D01*
X0010266Y0119009D01*
X0009817Y0119541D01*
X0009401Y0120094D01*
X0008985Y0120647D01*
X0008602Y0121220D01*
X0008252Y0121815D01*
X0007902Y0122409D01*
X0007585Y0123023D01*
X0007301Y0123658D01*
X0007017Y0124293D01*
X0006766Y0124948D01*
X0006549Y0125623D01*
X0006331Y0126298D01*
X0006146Y0126993D01*
X0005995Y0127708D01*
X0005844Y0128422D01*
X0005726Y0129156D01*
X0005557Y0130663D01*
X0005505Y0131436D01*
X0005488Y0132227D01*
X0005470Y0133019D01*
X0005486Y0133830D01*
X0005535Y0134659D01*
X0005613Y0135968D01*
X0005730Y0137195D01*
X0005878Y0138350D01*
X0006027Y0139505D01*
X0006209Y0140587D01*
X0006417Y0141607D01*
X0006626Y0142626D01*
X0006861Y0143582D01*
X0007119Y0144483D01*
X0007376Y0145385D01*
X0007656Y0146232D01*
X0008246Y0147835D01*
X0008558Y0148591D01*
X0008881Y0149311D01*
X0009203Y0150030D01*
X0009537Y0150714D01*
X0010214Y0152025D01*
X0010558Y0152652D01*
X0010902Y0153262D01*
X0011246Y0153871D01*
X0011590Y0154462D01*
X0011928Y0155043D01*
X0012398Y0155850D01*
X0012856Y0156637D01*
X0013286Y0157434D01*
X0013716Y0158230D01*
X0014119Y0159037D01*
X0014478Y0159885D01*
X0014838Y0160733D01*
X0015154Y0161623D01*
X0015413Y0162586D01*
X0015671Y0163548D01*
X0015871Y0164583D01*
X0016126Y0166862D01*
X0016179Y0168106D01*
X0016145Y0169484D01*
X0016110Y0170863D01*
X0015987Y0172378D01*
X0015760Y0174059D01*
X0015534Y0175740D01*
X0017203Y0176588D01*
X0016305Y0180681D01*
X0013737Y0183925D01*
X0013035Y0186399D01*
X0011796Y0190765D01*
X0010763Y0195073D01*
X0009904Y0199272D01*
X0009045Y0203471D01*
X0008360Y0207561D01*
X0007275Y0215420D01*
X0006875Y0218190D01*
X0006295Y0225306D01*
X0006115Y0228652D01*
X0006014Y0231736D01*
X0005913Y0234820D01*
X0005891Y0237641D01*
X0005915Y0240149D01*
X0005939Y0242656D01*
X0006010Y0244850D01*
X0006096Y0246679D01*
X0006182Y0248508D01*
X0006283Y0249971D01*
X0006367Y0251019D01*
X0006451Y0252066D01*
X0006518Y0252698D01*
X0006536Y0252862D01*
X0006535Y0252890D01*
X0006533Y0252919D01*
X0006532Y0252948D01*
X0006530Y0252976D01*
X0006528Y0253005D01*
X0006527Y0253034D01*
X0006525Y0253062D01*
X0006524Y0253091D01*
X0007017Y0255693D01*
X0007576Y0258249D01*
X0008824Y0263266D01*
X0009512Y0265727D01*
X0011020Y0270553D01*
X0011839Y0272918D01*
X0012723Y0275233D01*
X0013606Y0277549D01*
X0014555Y0279815D01*
X0015568Y0282032D01*
X0016582Y0284248D01*
X0017660Y0286414D01*
X0018803Y0288529D01*
X0019946Y0290644D01*
X0021154Y0292708D01*
X0023699Y0296732D01*
X0025036Y0298692D01*
X0026438Y0300599D01*
X0027839Y0302506D01*
X0029306Y0304359D01*
X0030836Y0306159D01*
X0032074Y0307614D01*
X0033350Y0309034D01*
X0034665Y0310419D01*
X0035979Y0311804D01*
X0037332Y0313154D01*
X0040115Y0315782D01*
X0041546Y0317060D01*
X0043014Y0318302D01*
X0044483Y0319544D01*
X0045990Y0320749D01*
X0049082Y0323087D01*
X0050667Y0324218D01*
X0052290Y0325313D01*
X0053914Y0326408D01*
X0055576Y0327465D01*
X0058977Y0329504D01*
X0060716Y0330485D01*
X0062495Y0331428D01*
X0064273Y0332372D01*
X0066090Y0333277D01*
X0067945Y0334143D01*
X0070648Y0335404D01*
X0073331Y0336539D01*
X0075973Y0337562D01*
X0078615Y0338585D01*
X0081215Y0339495D01*
X0083752Y0340304D01*
X0086290Y0341114D01*
X0088763Y0341823D01*
X0091151Y0342444D01*
X0093539Y0343065D01*
X0095841Y0343599D01*
X0100228Y0344514D01*
X0102314Y0344896D01*
X0104269Y0345215D01*
X0106224Y0345534D01*
X0108049Y0345790D01*
X0111393Y0346201D01*
X0112913Y0346356D01*
X0115601Y0346590D01*
X0116771Y0346668D01*
X0117743Y0346721D01*
X0117743Y0346809D01*
X0118212Y0346819D01*
X0118681Y0346830D01*
X0119150Y0346840D01*
X0119619Y0346850D01*
X0120088Y0346861D01*
X0120557Y0346871D01*
X0121026Y0346881D01*
X0121495Y0346892D01*
X0121764Y0346892D01*
X0122072Y0346882D01*
X0122379Y0346871D01*
X0122686Y0346861D01*
X0122993Y0346851D01*
X0123301Y0346841D01*
X0123608Y0346831D01*
X0123915Y0346821D01*
X0124222Y0346811D01*
X0124222Y0346726D01*
X0125194Y0346674D01*
X0126384Y0346597D01*
X0127764Y0346482D01*
X0129144Y0346367D01*
X0130715Y0346213D01*
X0134185Y0345806D01*
X0136084Y0345551D01*
X0138121Y0345233D01*
X0140159Y0344916D01*
X0142334Y0344535D01*
X0146907Y0343621D01*
X0149304Y0343088D01*
X0151787Y0342467D01*
X0154270Y0341846D01*
X0156838Y0341137D01*
X0159464Y0340326D01*
X0162090Y0339516D01*
X0164774Y0338604D01*
X0167491Y0337579D01*
X0170208Y0336554D01*
X0172956Y0335415D01*
X0175710Y0334151D01*
X0177595Y0333285D01*
X0179447Y0332381D01*
X0181266Y0331438D01*
X0183084Y0330496D01*
X0184869Y0329515D01*
X0186618Y0328496D01*
X0188368Y0327477D01*
X0190081Y0326420D01*
X0191757Y0325326D01*
X0193433Y0324231D01*
X0195071Y0323100D01*
X0196670Y0321931D01*
X0198269Y0320763D01*
X0199829Y0319558D01*
X0202866Y0317075D01*
X0204343Y0315797D01*
X0205777Y0314483D01*
X0207211Y0313169D01*
X0208601Y0311819D01*
X0209947Y0310434D01*
X0211293Y0309049D01*
X0212593Y0307629D01*
X0213847Y0306174D01*
X0215398Y0304374D01*
X0216885Y0302520D01*
X0218307Y0300613D01*
X0219729Y0298706D01*
X0221086Y0296746D01*
X0222378Y0294734D01*
X0223670Y0292722D01*
X0224896Y0290658D01*
X0226058Y0288542D01*
X0227219Y0286426D01*
X0228314Y0284260D01*
X0230373Y0279826D01*
X0231337Y0277559D01*
X0232233Y0275242D01*
X0233130Y0272926D01*
X0233961Y0270560D01*
X0234724Y0268146D01*
X0235487Y0265732D01*
X0236184Y0263270D01*
X0236813Y0260760D01*
X0237442Y0258251D01*
X0238003Y0255694D01*
X0238497Y0253091D01*
X0238502Y0253065D01*
X0238504Y0253052D01*
X0238506Y0253038D01*
X0238508Y0253025D01*
X0238511Y0253012D01*
X0238513Y0252999D01*
X0238515Y0252986D01*
X0238540Y0252821D01*
X0238634Y0252189D01*
X0238760Y0251139D01*
X0238886Y0250090D01*
X0239044Y0248623D01*
X0239349Y0244959D01*
X0239497Y0242761D01*
X0239602Y0240249D01*
X0239708Y0237737D01*
X0239771Y0234910D01*
X0239739Y0228731D01*
X0239644Y0225378D01*
X0239433Y0222813D01*
X0239222Y0219249D01*
X0238895Y0215473D01*
X0237934Y0207599D01*
X0237300Y0203501D01*
X0236477Y0199295D01*
X0235653Y0195088D01*
X0234639Y0190772D01*
X0233398Y0186399D01*
X0232697Y0183930D01*
X0232131Y0181691D01*
X0231685Y0179649D01*
X0231239Y0177607D01*
X0230912Y0175762D01*
X0230690Y0174084D01*
X0230467Y0172406D01*
X0230349Y0170895D01*
X0230290Y0168141D01*
X0230349Y0166900D01*
X0230483Y0165762D01*
X0230616Y0164624D01*
X0230823Y0163590D01*
X0231088Y0162629D01*
X0231353Y0161667D01*
X0231677Y0160779D01*
X0232410Y0159083D01*
X0232820Y0158277D01*
X0233695Y0156685D01*
X0234161Y0155899D01*
X0234639Y0155091D01*
X0234983Y0154510D01*
X0235334Y0153918D01*
X0235684Y0153308D01*
X0236034Y0152697D01*
X0236385Y0152068D01*
X0236730Y0151412D01*
X0237075Y0150755D01*
X0237415Y0150071D01*
X0237744Y0149350D01*
X0238072Y0148629D01*
X0238390Y0147871D01*
X0238691Y0147068D01*
X0238992Y0146264D01*
X0239276Y0145415D01*
X0239538Y0144511D01*
X0239800Y0143608D01*
X0240040Y0142649D01*
X0240252Y0141627D01*
X0240464Y0140605D01*
X0240648Y0139520D01*
X0240799Y0138361D01*
X0240950Y0137203D01*
X0241067Y0135472D01*
X0241195Y0133830D01*
X0241211Y0133021D01*
X0241193Y0132232D01*
X0241176Y0131444D01*
X0241125Y0130676D01*
X0240956Y0129181D01*
X0240838Y0128453D01*
X0240687Y0127746D01*
X0240536Y0127039D01*
X0240351Y0126352D01*
X0240134Y0125684D01*
X0239916Y0125017D01*
X0239665Y0124370D01*
X0239382Y0123742D01*
X0239098Y0123115D01*
X0238781Y0122507D01*
X0238431Y0121918D01*
X0238081Y0121330D01*
X0237698Y0120761D01*
X0236866Y0119662D01*
X0236417Y0119131D01*
X0235936Y0118620D01*
X0235114Y0117748D01*
X0234222Y0116971D01*
X0233278Y0116278D01*
X0232334Y0115585D01*
X0231338Y0114977D01*
X0230309Y0114443D01*
X0229280Y0113909D01*
X0228218Y0113450D01*
X0227142Y0113056D01*
X0226065Y0112661D01*
X0224974Y0112332D01*
X0222801Y0111781D01*
X0221719Y0111560D01*
X0219601Y0111207D01*
X0218565Y0111075D01*
X0217570Y0110978D01*
X0216575Y0110880D01*
X0215623Y0110817D01*
X0214730Y0110778D01*
X0213838Y0110740D01*
X0213006Y0110725D01*
X0212121Y0110725D01*
X0211994Y0110724D01*
X0211868Y0110721D01*
X0211743Y0110719D01*
X0211619Y0110715D01*
X0211376Y0110707D01*
X0211257Y0110702D01*
X0211139Y0110697D01*
X0211022Y0110692D01*
X0210907Y0110687D01*
X0210794Y0110683D01*
X0210681Y0110678D01*
X0210570Y0110673D01*
X0210461Y0110670D01*
X0210353Y0110666D01*
X0210246Y0110663D01*
X0210142Y0110661D01*
X0210038Y0110659D01*
X0209937Y0110659D01*
X0209838Y0110660D01*
X0209739Y0110661D01*
X0209642Y0110664D01*
X0209548Y0110669D01*
X0209273Y0110013D01*
X0208978Y0109277D01*
X0208674Y0108478D01*
X0208369Y0107680D01*
X0208056Y0106820D01*
X0207745Y0105916D01*
X0207434Y0105012D01*
X0207126Y0104064D01*
X0206832Y0103091D01*
X0206538Y0102118D01*
X0206258Y0101120D01*
X0205751Y0099108D01*
X0205524Y0098096D01*
X0205334Y0097094D01*
X0205144Y0096093D01*
X0204992Y0095103D01*
X0204890Y0094142D01*
X0204787Y0093182D01*
X0204735Y0092251D01*
X0204743Y0091367D01*
X0204751Y0090484D01*
X0204821Y0089649D01*
X0204963Y0088880D01*
X0205128Y0087987D01*
X0205336Y0086867D01*
X0205540Y0085562D01*
X0205744Y0084256D01*
X0205946Y0082765D01*
X0206099Y0081131D01*
X0206252Y0079497D01*
X0206356Y0077719D01*
X0206367Y0075842D01*
X0206378Y0073964D01*
X0206296Y0071986D01*
X0206074Y0069950D01*
X0205853Y0067914D01*
X0205492Y0065819D01*
X0204403Y0061600D01*
X0203674Y0059474D01*
X0202716Y0057376D01*
X0201758Y0055278D01*
X0200571Y0053206D01*
X0197646Y0049202D01*
X0195909Y0047269D01*
X0193852Y0045448D01*
X0193157Y0044833D01*
X0192477Y0044243D01*
X0191142Y0043107D01*
X0190487Y0042562D01*
X0189846Y0042037D01*
X0189204Y0041512D01*
X0188575Y0041007D01*
X0187341Y0040032D01*
X0186736Y0039563D01*
X0185548Y0038655D01*
X0184966Y0038216D01*
X0184394Y0037791D01*
X0183822Y0037366D01*
X0183261Y0036954D01*
X0182158Y0036151D01*
X0181616Y0035761D01*
X0181084Y0035379D01*
X0180552Y0034997D01*
X0180029Y0034623D01*
X0179514Y0034256D01*
X0178709Y0033680D01*
X0177937Y0033129D01*
X0177198Y0032594D01*
X0176458Y0032059D01*
X0175750Y0031539D01*
X0175073Y0031026D01*
X0174395Y0030514D01*
X0173748Y0030008D01*
X0172508Y0028993D01*
X0171915Y0028484D01*
X0171349Y0027964D01*
X0170782Y0027445D01*
X0170241Y0026915D01*
X0169724Y0026366D01*
X0169206Y0025817D01*
X0168712Y0025249D01*
X0168240Y0024652D01*
X0167767Y0024056D01*
X0167316Y0023433D01*
X0166452Y0022112D01*
X0166039Y0021415D01*
X0165643Y0020673D01*
X0165306Y0020041D01*
X0164893Y0019428D01*
X0164402Y0018833D01*
X0163912Y0018239D01*
X0163345Y0017664D01*
X0162701Y0017107D01*
X0162056Y0016550D01*
X0161333Y0016011D01*
X0159731Y0014970D01*
X0158852Y0014467D01*
X0157893Y0013982D01*
X0156934Y0013497D01*
X0155895Y0013029D01*
X0154777Y0012578D01*
X0153658Y0012128D01*
X0152459Y0011695D01*
X0149899Y0010861D01*
X0148538Y0010461D01*
X0147095Y0010077D01*
X0145652Y0009693D01*
X0144127Y0009326D01*
X0142519Y0008974D01*
X0141639Y0008782D01*
X0140762Y0008601D01*
X0139025Y0008259D01*
X0138165Y0008099D01*
X0137319Y0007948D01*
X0136473Y0007798D01*
X0135641Y0007658D01*
X0134829Y0007527D01*
X0134017Y0007397D01*
X0133225Y0007276D01*
X0131691Y0007052D01*
X0130949Y0006949D01*
X0130238Y0006854D01*
X0129527Y0006759D01*
X0128847Y0006673D01*
X0127560Y0006517D01*
X0126954Y0006447D01*
X0126389Y0006385D01*
X0125824Y0006322D01*
X0125301Y0006267D01*
X0124826Y0006220D01*
X0124033Y0006149D01*
X0123637Y0006113D01*
X0123241Y0006078D01*
X0122053Y0005972D01*
X0121657Y0005937D01*
X0120864Y0006012D01*
X0120467Y0006050D01*
X0119673Y0006126D01*
X0119277Y0006164D01*
X0118483Y0006239D01*
X0117999Y0006290D01*
X0117477Y0006347D01*
X0116923Y0006412D01*
X0116368Y0006476D01*
X0115780Y0006548D01*
X0115163Y0006627D01*
X0114546Y0006706D01*
X0113900Y0006793D01*
X0113229Y0006888D01*
X0112558Y0006983D01*
X0111862Y0007087D01*
X0111145Y0007198D01*
X0110428Y0007310D01*
X0109690Y0007430D01*
X0108180Y0007689D01*
X0107408Y0007827D01*
X0106623Y0007975D01*
X0105838Y0008123D01*
X0105040Y0008281D01*
X0104233Y0008448D01*
X0103426Y0008615D01*
X0102610Y0008793D01*
X0101789Y0008981D01*
X0100247Y0009333D01*
X0098783Y0009702D01*
X0097397Y0010086D01*
X0096012Y0010471D01*
X0094704Y0010872D01*
X0093473Y0011289D01*
X0092242Y0011706D01*
X0091088Y0012139D01*
X0090010Y0012590D01*
X0088932Y0013041D01*
X0087931Y0013508D01*
X0087005Y0013993D01*
X0086078Y0014478D01*
X0085227Y0014980D01*
X0084451Y0015500D01*
X0083675Y0016020D01*
X0082973Y0016558D01*
X0082345Y0017114D01*
X0081717Y0017670D01*
X0081163Y0018244D01*
X0080682Y0018837D01*
X0080200Y0019429D01*
X0079792Y0020041D01*
X0079456Y0020671D01*
X0079036Y0021459D01*
X0078606Y0022195D01*
X0078163Y0022890D01*
X0077720Y0023585D01*
X0077263Y0024239D01*
X0076788Y0024863D01*
X0076314Y0025487D01*
X0075822Y0026080D01*
X0075308Y0026652D01*
X0074795Y0027225D01*
X0074260Y0027777D01*
X0073700Y0028319D01*
X0073140Y0028861D01*
X0072554Y0029393D01*
X0071940Y0029925D01*
X0071325Y0030458D01*
X0070681Y0030990D01*
X0069327Y0032076D01*
X0068617Y0032629D01*
X0067870Y0033203D01*
X0067123Y0033777D01*
X0066339Y0034372D01*
X0065514Y0034998D01*
X0065055Y0035346D01*
X0064589Y0035700D01*
X0064114Y0036061D01*
X0063639Y0036423D01*
X0063156Y0036792D01*
X0062663Y0037170D01*
X0062171Y0037549D01*
X0061669Y0037938D01*
X0061156Y0038338D01*
X0060644Y0038738D01*
X0060121Y0039149D01*
X0059054Y0039999D01*
X0058509Y0040438D01*
X0057953Y0040891D01*
X0057396Y0041345D01*
X0056827Y0041814D01*
X0056246Y0042301D01*
X0055664Y0042787D01*
X0055070Y0043291D01*
X0054462Y0043814D01*
X0053854Y0044337D01*
X0053232Y0044879D01*
X0052596Y0045442D01*
X0050559Y0047245D01*
X0048839Y0049152D01*
X0047389Y0051124D01*
X0045940Y0053095D01*
X0044761Y0055133D01*
D11*
X0055210Y0317000D02*
X0055212Y0317169D01*
X0055218Y0317338D01*
X0055229Y0317507D01*
X0055243Y0317675D01*
X0055262Y0317843D01*
X0055285Y0318011D01*
X0055311Y0318178D01*
X0055342Y0318344D01*
X0055377Y0318510D01*
X0055416Y0318674D01*
X0055460Y0318838D01*
X0055507Y0319000D01*
X0055558Y0319161D01*
X0055613Y0319321D01*
X0055672Y0319480D01*
X0055734Y0319637D01*
X0055801Y0319792D01*
X0055872Y0319946D01*
X0055946Y0320098D01*
X0056024Y0320248D01*
X0056105Y0320396D01*
X0056190Y0320542D01*
X0056279Y0320686D01*
X0056371Y0320828D01*
X0056467Y0320967D01*
X0056566Y0321104D01*
X0056668Y0321239D01*
X0056774Y0321371D01*
X0056883Y0321500D01*
X0056995Y0321627D01*
X0057110Y0321751D01*
X0057228Y0321872D01*
X0057349Y0321990D01*
X0057473Y0322105D01*
X0057600Y0322217D01*
X0057729Y0322326D01*
X0057861Y0322432D01*
X0057996Y0322534D01*
X0058133Y0322633D01*
X0058272Y0322729D01*
X0058414Y0322821D01*
X0058558Y0322910D01*
X0058704Y0322995D01*
X0058852Y0323076D01*
X0059002Y0323154D01*
X0059154Y0323228D01*
X0059308Y0323299D01*
X0059463Y0323366D01*
X0059620Y0323428D01*
X0059779Y0323487D01*
X0059939Y0323542D01*
X0060100Y0323593D01*
X0060262Y0323640D01*
X0060426Y0323684D01*
X0060590Y0323723D01*
X0060756Y0323758D01*
X0060922Y0323789D01*
X0061089Y0323815D01*
X0061257Y0323838D01*
X0061425Y0323857D01*
X0061593Y0323871D01*
X0061762Y0323882D01*
X0061931Y0323888D01*
X0062100Y0323890D01*
X0062269Y0323888D01*
X0062438Y0323882D01*
X0062607Y0323871D01*
X0062775Y0323857D01*
X0062943Y0323838D01*
X0063111Y0323815D01*
X0063278Y0323789D01*
X0063444Y0323758D01*
X0063610Y0323723D01*
X0063774Y0323684D01*
X0063938Y0323640D01*
X0064100Y0323593D01*
X0064261Y0323542D01*
X0064421Y0323487D01*
X0064580Y0323428D01*
X0064737Y0323366D01*
X0064892Y0323299D01*
X0065046Y0323228D01*
X0065198Y0323154D01*
X0065348Y0323076D01*
X0065496Y0322995D01*
X0065642Y0322910D01*
X0065786Y0322821D01*
X0065928Y0322729D01*
X0066067Y0322633D01*
X0066204Y0322534D01*
X0066339Y0322432D01*
X0066471Y0322326D01*
X0066600Y0322217D01*
X0066727Y0322105D01*
X0066851Y0321990D01*
X0066972Y0321872D01*
X0067090Y0321751D01*
X0067205Y0321627D01*
X0067317Y0321500D01*
X0067426Y0321371D01*
X0067532Y0321239D01*
X0067634Y0321104D01*
X0067733Y0320967D01*
X0067829Y0320828D01*
X0067921Y0320686D01*
X0068010Y0320542D01*
X0068095Y0320396D01*
X0068176Y0320248D01*
X0068254Y0320098D01*
X0068328Y0319946D01*
X0068399Y0319792D01*
X0068466Y0319637D01*
X0068528Y0319480D01*
X0068587Y0319321D01*
X0068642Y0319161D01*
X0068693Y0319000D01*
X0068740Y0318838D01*
X0068784Y0318674D01*
X0068823Y0318510D01*
X0068858Y0318344D01*
X0068889Y0318178D01*
X0068915Y0318011D01*
X0068938Y0317843D01*
X0068957Y0317675D01*
X0068971Y0317507D01*
X0068982Y0317338D01*
X0068988Y0317169D01*
X0068990Y0317000D01*
X0068988Y0316831D01*
X0068982Y0316662D01*
X0068971Y0316493D01*
X0068957Y0316325D01*
X0068938Y0316157D01*
X0068915Y0315989D01*
X0068889Y0315822D01*
X0068858Y0315656D01*
X0068823Y0315490D01*
X0068784Y0315326D01*
X0068740Y0315162D01*
X0068693Y0315000D01*
X0068642Y0314839D01*
X0068587Y0314679D01*
X0068528Y0314520D01*
X0068466Y0314363D01*
X0068399Y0314208D01*
X0068328Y0314054D01*
X0068254Y0313902D01*
X0068176Y0313752D01*
X0068095Y0313604D01*
X0068010Y0313458D01*
X0067921Y0313314D01*
X0067829Y0313172D01*
X0067733Y0313033D01*
X0067634Y0312896D01*
X0067532Y0312761D01*
X0067426Y0312629D01*
X0067317Y0312500D01*
X0067205Y0312373D01*
X0067090Y0312249D01*
X0066972Y0312128D01*
X0066851Y0312010D01*
X0066727Y0311895D01*
X0066600Y0311783D01*
X0066471Y0311674D01*
X0066339Y0311568D01*
X0066204Y0311466D01*
X0066067Y0311367D01*
X0065928Y0311271D01*
X0065786Y0311179D01*
X0065642Y0311090D01*
X0065496Y0311005D01*
X0065348Y0310924D01*
X0065198Y0310846D01*
X0065046Y0310772D01*
X0064892Y0310701D01*
X0064737Y0310634D01*
X0064580Y0310572D01*
X0064421Y0310513D01*
X0064261Y0310458D01*
X0064100Y0310407D01*
X0063938Y0310360D01*
X0063774Y0310316D01*
X0063610Y0310277D01*
X0063444Y0310242D01*
X0063278Y0310211D01*
X0063111Y0310185D01*
X0062943Y0310162D01*
X0062775Y0310143D01*
X0062607Y0310129D01*
X0062438Y0310118D01*
X0062269Y0310112D01*
X0062100Y0310110D01*
X0061931Y0310112D01*
X0061762Y0310118D01*
X0061593Y0310129D01*
X0061425Y0310143D01*
X0061257Y0310162D01*
X0061089Y0310185D01*
X0060922Y0310211D01*
X0060756Y0310242D01*
X0060590Y0310277D01*
X0060426Y0310316D01*
X0060262Y0310360D01*
X0060100Y0310407D01*
X0059939Y0310458D01*
X0059779Y0310513D01*
X0059620Y0310572D01*
X0059463Y0310634D01*
X0059308Y0310701D01*
X0059154Y0310772D01*
X0059002Y0310846D01*
X0058852Y0310924D01*
X0058704Y0311005D01*
X0058558Y0311090D01*
X0058414Y0311179D01*
X0058272Y0311271D01*
X0058133Y0311367D01*
X0057996Y0311466D01*
X0057861Y0311568D01*
X0057729Y0311674D01*
X0057600Y0311783D01*
X0057473Y0311895D01*
X0057349Y0312010D01*
X0057228Y0312128D01*
X0057110Y0312249D01*
X0056995Y0312373D01*
X0056883Y0312500D01*
X0056774Y0312629D01*
X0056668Y0312761D01*
X0056566Y0312896D01*
X0056467Y0313033D01*
X0056371Y0313172D01*
X0056279Y0313314D01*
X0056190Y0313458D01*
X0056105Y0313604D01*
X0056024Y0313752D01*
X0055946Y0313902D01*
X0055872Y0314054D01*
X0055801Y0314208D01*
X0055734Y0314363D01*
X0055672Y0314520D01*
X0055613Y0314679D01*
X0055558Y0314839D01*
X0055507Y0315000D01*
X0055460Y0315162D01*
X0055416Y0315326D01*
X0055377Y0315490D01*
X0055342Y0315656D01*
X0055311Y0315822D01*
X0055285Y0315989D01*
X0055262Y0316157D01*
X0055243Y0316325D01*
X0055229Y0316493D01*
X0055218Y0316662D01*
X0055212Y0316831D01*
X0055210Y0317000D01*
D12*
X0107194Y0048000D03*
X0102006Y0038000D03*
X0090194Y0038000D03*
X0119006Y0048000D03*
D13*
X0112470Y0190000D03*
X0133730Y0190000D03*
D14*
X0178573Y0177363D02*
X0178573Y0172637D01*
X0173847Y0172637D01*
X0173847Y0177363D01*
X0178573Y0177363D01*
X0178573Y0173817D02*
X0173847Y0173817D01*
X0173847Y0174997D02*
X0178573Y0174997D01*
X0178573Y0176177D02*
X0173847Y0176177D01*
X0173847Y0177357D02*
X0178573Y0177357D01*
X0192353Y0177363D02*
X0192353Y0172637D01*
X0187627Y0172637D01*
X0187627Y0177363D01*
X0192353Y0177363D01*
X0192353Y0173817D02*
X0187627Y0173817D01*
X0187627Y0174997D02*
X0192353Y0174997D01*
X0192353Y0176177D02*
X0187627Y0176177D01*
X0187627Y0177357D02*
X0192353Y0177357D01*
X0075353Y0177363D02*
X0075353Y0172637D01*
X0070627Y0172637D01*
X0070627Y0177363D01*
X0075353Y0177363D01*
X0075353Y0173817D02*
X0070627Y0173817D01*
X0070627Y0174997D02*
X0075353Y0174997D01*
X0075353Y0176177D02*
X0070627Y0176177D01*
X0070627Y0177357D02*
X0075353Y0177357D01*
X0061573Y0177363D02*
X0061573Y0172637D01*
X0056847Y0172637D01*
X0056847Y0177363D01*
X0061573Y0177363D01*
X0061573Y0173817D02*
X0056847Y0173817D01*
X0056847Y0174997D02*
X0061573Y0174997D01*
X0061573Y0176177D02*
X0056847Y0176177D01*
X0056847Y0177357D02*
X0061573Y0177357D01*
D15*
X0112864Y0038500D03*
X0112864Y0033500D03*
X0112864Y0028500D03*
X0112864Y0023500D03*
X0133336Y0023500D03*
X0133336Y0028500D03*
X0133336Y0033500D03*
X0133336Y0038500D03*
D16*
X0126840Y0209669D03*
X0123100Y0218331D03*
X0119360Y0209669D03*
D17*
X0117198Y0227000D03*
X0129002Y0227000D03*
X0177198Y0188000D03*
X0189002Y0188000D03*
X0139002Y0048000D03*
X0146198Y0038000D03*
X0146198Y0028000D03*
X0158002Y0028000D03*
X0158002Y0038000D03*
X0127198Y0048000D03*
X0101002Y0028000D03*
X0089198Y0028000D03*
X0072002Y0188000D03*
X0060198Y0188000D03*
D18*
X0123100Y0307000D03*
M02*
