%
M48
M72
T01C0.01600
T02C0.02400
T03C0.03100
T04C0.03200
T05C0.04000
T06C0.07874
T07C0.13780
%
T01
X99100Y161000
X127100Y204000
X177100Y196000
X177100Y56000
X60100Y196000
T02
X60100Y77000
X89100Y46000
X123600Y114000
X157100Y46000
X187100Y78000
X210100Y121000
X216600Y179000
X214100Y223000
X225100Y260000
X213100Y292000
X157100Y329000
X133100Y275000
X123100Y274000
X112100Y275000
X88100Y328000
X33100Y293000
X20100Y260000
X34100Y224000
X29600Y177000
X37100Y121000
T03
X113257Y239000
X123100Y239000
X132943Y239000
X132943Y251598
X123100Y251598
X113257Y251598
T04
X142100Y61000
T05
X140100Y176000
X106100Y176000
T06
X81100Y307000
X165100Y307000
T07
X62100Y317000
M30
