  0
SECTION
  2
HEADER
  9
$ACADVER
  1
AC1012
  9
$DWGCODEPAGE
  3
undefined
  9
$INSBASE
 10
0.0
 20
0.0
 30
0.0
  9
$EXTMIN
 10
1.000000000000000E+20
 20
1.000000000000000E+20
 30
1.000000000000000E+20
  9
$EXTMAX
 10
-1.000000000000000E+20
 20
-1.000000000000000E+20
 30
-1.000000000000000E+20
  9
$LIMMIN
 10
0.0
 20
0.0
  9
$LIMMAX
 10
12.0
 20
9.0
  9
$ORTHOMODE
 70
     0
  9
$REGENMODE
 70
     1
  9
$FILLMODE
 70
     1
  9
$QTEXTMODE
 70
     0
  9
$MIRRTEXT
 70
     1
  9
$DRAGMODE
 70
     2
  9
$LTSCALE
 40
1.0
  9
$OSMODE
 70
    37
  9
$ATTMODE
 70
     1
  9
$TEXTSIZE
 40
0.2
  9
$TRACEWID
 40
0.05
  9
$TEXTSTYLE
  7
STANDARD
  9
$CLAYER
  8
0
  9
$CELTYPE
  6
BYLAYER
  9
$CECOLOR
 62
   256
  9
$CELTSCALE
 40
1.0
  9
$DELOBJ
 70
     1
  9
$DISPSILH
 70
     0
  9
$DIMSCALE
 40
1.0
  9
$DIMASZ
 40
0.18
  9
$DIMEXO
 40
0.0625
  9
$DIMDLI
 40
0.38
  9
$DIMRND
 40
0.0
  9
$DIMDLE
 40
0.0
  9
$DIMEXE
 40
0.18
  9
$DIMTP
 40
0.0
  9
$DIMTM
 40
0.0
  9
$DIMTXT
 40
0.18
  9
$DIMCEN
 40
0.09
  9
$DIMTSZ
 40
0.0
  9
$DIMTOL
 70
     0
  9
$DIMLIM
 70
     0
  9
$DIMTIH
 70
     1
  9
$DIMTOH
 70
     1
  9
$DIMSE1
 70
     0
  9
$DIMSE2
 70
     0
  9
$DIMTAD
 70
     0
  9
$DIMZIN
 70
     0
  9
$DIMBLK
  1

  9
$DIMASO
 70
     1
  9
$DIMSHO
 70
     1
  9
$DIMPOST
  1

  9
$DIMAPOST
  1

  9
$DIMALT
 70
     0
  9
$DIMALTD
 70
     2
  9
$DIMALTF
 40
25.4
  9
$DIMLFAC
 40
1.0
  9
$DIMTOFL
 70
     0
  9
$DIMTVP
 40
0.0
  9
$DIMTIX
 70
     0
  9
$DIMSOXD
 70
     0
  9
$DIMSAH
 70
     0
  9
$DIMBLK1
  1

  9
$DIMBLK2
  1

  9
$DIMSTYLE
  2
STANDARD
  9
$DIMCLRD
 70
     0
  9
$DIMCLRE
 70
     0
  9
$DIMCLRT
 70
     0
  9
$DIMTFAC
 40
1.0
  9
$DIMGAP
 40
0.09
  9
$DIMJUST
 70
     0
  9
$DIMSD1
 70
     0
  9
$DIMSD2
 70
     0
  9
$DIMTOLJ
 70
     1
  9
$DIMTZIN
 70
     0
  9
$DIMALTZ
 70
     0
  9
$DIMALTTZ
 70
     0
  9
$DIMFIT
 70
     3
  9
$DIMUPT
 70
     0
  9
$DIMUNIT
 70
     2
  9
$DIMDEC
 70
     4
  9
$DIMTDEC
 70
     4
  9
$DIMALTU
 70
     2
  9
$DIMALTTD
 70
     2
  9
$DIMTXSTY
  7
STANDARD
  9
$DIMAUNIT
 70
     0
  9
$LUNITS
 70
     2
  9
$LUPREC
 70
     4
  9
$SKETCHINC
 40
0.1
  9
$FILLETRAD
 40
0.5
  9
$AUNITS
 70
     0
  9
$AUPREC
 70
     0
  9
$MENU
  1
.
  9
$ELEVATION
 40
0.0
  9
$PELEVATION
 40
0.0
  9
$THICKNESS
 40
0.0
  9
$LIMCHECK
 70
     0
  9
$CHAMFERA
 40
0.5
  9
$CHAMFERB
 40
0.5
  9
$CHAMFERC
 40
1.0
  9
$CHAMFERD
 40
0.0
  9
$SKPOLY
 70
     0
  9
$TDCREATE
 40
2458029.516388889
  9
$TDUPDATE
 40
2458029.516388889
  9
$TDINDWG
 40
0.0000000116
  9
$TDUSRTIMER
 40
0.0000000116
  9
$USRTIMER
 70
     1
  9
$ANGBASE
 50
0.0
  9
$ANGDIR
 70
     0
  9
$PDMODE
 70
     0
  9
$PDSIZE
 40
0.0
  9
$PLINEWID
 40
0.0
  9
$COORDS
 70
     1
  9
$SPLFRAME
 70
     0
  9
$SPLINETYPE
 70
     6
  9
$SPLINESEGS
 70
     8
  9
$ATTDIA
 70
     0
  9
$ATTREQ
 70
     1
  9
$HANDLING
 70
     1
  9
$HANDSEED
  5
4D
  9
$SURFTAB1
 70
     6
  9
$SURFTAB2
 70
     6
  9
$SURFTYPE
 70
     6
  9
$SURFU
 70
     6
  9
$SURFV
 70
     6
  9
$UCSNAME
  2

  9
$UCSORG
 10
0.0
 20
0.0
 30
0.0
  9
$UCSXDIR
 10
1.0
 20
0.0
 30
0.0
  9
$UCSYDIR
 10
0.0
 20
1.0
 30
0.0
  9
$PUCSNAME
  2

  9
$PUCSORG
 10
0.0
 20
0.0
 30
0.0
  9
$PUCSXDIR
 10
1.0
 20
0.0
 30
0.0
  9
$PUCSYDIR
 10
0.0
 20
1.0
 30
0.0
  9
$USERI1
 70
     0
  9
$USERI2
 70
     0
  9
$USERI3
 70
     0
  9
$USERI4
 70
     0
  9
$USERI5
 70
     0
  9
$USERR1
 40
0.0
  9
$USERR2
 40
0.0
  9
$USERR3
 40
0.0
  9
$USERR4
 40
0.0
  9
$USERR5
 40
0.0
  9
$WORLDVIEW
 70
     1
  9
$SHADEDGE
 70
     3
  9
$SHADEDIF
 70
    70
  9
$TILEMODE
 70
     1
  9
$MAXACTVP
 70
    64
  9
$PINSBASE
 10
0.0
 20
0.0
 30
0.0
  9
$PLIMCHECK
 70
     0
  9
$PEXTMIN
 10
1.000000000000000E+20
 20
1.000000000000000E+20
 30
1.000000000000000E+20
  9
$PEXTMAX
 10
-1.000000000000000E+20
 20
-1.000000000000000E+20
 30
-1.000000000000000E+20
  9
$PLIMMIN
 10
0.0
 20
0.0
  9
$PLIMMAX
 10
12.0
 20
9.0
  9
$UNITMODE
 70
     0
  9
$VISRETAIN
 70
     1
  9
$PLINEGEN
 70
     0
  9
$PSLTSCALE
 70
     1
  9
$TREEDEPTH
 70
  3020
  9
$PICKSTYLE
 70
     1
  9
$CMLSTYLE
  2
STANDARD
  9
$CMLJUST
 70
     0
  9
$CMLSCALE
 40
1.0
  9
$SAVEIMAGES
 70
     1
  0
ENDSEC
  0
SECTION
  2
CLASSES
  0
CLASS
  1
ACDBDICTIONARYWDFLT
  2
AcDbDictionaryWithDefault
  3
ObjectDBX Classes
 90
    32768
280
     0
281
     0
  0
CLASS
  1
VISUALSTYLE
  2
AcDbVisualStyle
  3
ObjectDBX Classes
 90
     4095
280
     0
281
     0
  0
CLASS
  1
MATERIAL
  2
AcDbMaterial
  3
ObjectDBX Classes
 90
     1153
280
     0
281
     0
  0
CLASS
  1
SUN
  2
AcDbSun
  3
SCENEOE
 90
     1024
280
     0
281
     0
  0
CLASS
  1
DICTIONARYVAR
  2
AcDbDictionaryVar
  3
ObjectDBX Classes
 90
        0
280
     0
281
     0
  0
CLASS
  1
XRECORD
  2
AcDbXrecord
  3
AutoCAD 2000
 90
    32768
280
     0
281
     0
  0
CLASS
  1
LWPOLYLINE
  2
AcDbPolyline
  3
AutoCAD 2000
 90
    32768
280
     0
281
     1
  0
CLASS
  1
HATCH
  2
AcDbHatch
  3
AutoCAD 2000
 90
    32768
280
     0
281
     1
  0
CLASS
  1
ACDBPLACEHOLDER
  2
AcDbPlaceHolder
  3
ObjectDBX Classes
 90
        0
280
     0
281
     0
  0
CLASS
  1
LAYOUT
  2
AcDbLayout
  3
ObjectDBX Classes
 90
        0
280
     0
281
     0
  0
ENDSEC
  0
SECTION
  2
TABLES
  0
TABLE
  2
VPORT
  5
8
330
0
100
AcDbSymbolTable
 70
     1
  0
VPORT
  5
29
330
8
100
AcDbSymbolTableRecord
100
AcDbViewportTableRecord
  2
*ACTIVE
 70
     0
 10
0.0
 20
0.0
 11
1.0
 21
1.0
 12
0.0
 22
0.0
 13
0.0
 23
0.0
 14
0.5
 24
0.5
 15
0.5
 25
0.5
 16
0.0
 26
0.0
 36
1.0
 17
105.0007777515277
 27
-148.5000416295416
 37
0.0
 40
297.0000832590831
 41
0.7070757462376333
 42
50.0
 43
0.0
 44
0.0
 50
0.0
 51
0.0
 71
     0
 72
   100
 73
     1
 74
     3
 75
     0
 76
     0
 77
     0
 78
     0
  0
ENDTAB
  0
TABLE
  2
LTYPE
  5
5
330
0
100
AcDbSymbolTable
 70
     1
  0
LTYPE
  5
14
330
5
100
AcDbSymbolTableRecord
100
AcDbLinetypeTableRecord
  2
BYBLOCK
 70
     0
  3

 72
    65
 73
     0
 40
0.0
  0
LTYPE
  5
15
330
5
100
AcDbSymbolTableRecord
100
AcDbLinetypeTableRecord
  2
BYLAYER
 70
     0
  3

 72
    65
 73
     0
 40
0.0
  0
LTYPE
  5
16
330
5
100
AcDbSymbolTableRecord
100
AcDbLinetypeTableRecord
  2
CONTINUOUS
 70
     0
  3
Solid line
 72
    65
 73
     0
 40
0.0
  0
ENDTAB
  0
TABLE
  2
LAYER
  5
2
330
0
100
AcDbSymbolTable
 70
     2
  0
LAYER
  5
10
330
2
100
AcDbSymbolTableRecord
100
AcDbLayerTableRecord
  2
0
 70
     0
 62
     7
  6
CONTINUOUS
  0
LAYER
  5
40
330
2
100
AcDbSymbolTableRecord
100
AcDbLayerTableRecord
  2
LIVELLO_1
 70
     0
 62
     7
  6
CONTINUOUS
  0
ENDTAB
  0
TABLE
  2
STYLE
  5
3
330
0
100
AcDbSymbolTable
 70
     1
  0
STYLE
  5
11
330
3
100
AcDbSymbolTableRecord
100
AcDbTextStyleTableRecord
  2
STANDARD
 70
     0
 40
0.0
 41
1.0
 50
0.0
 71
     0
 42
0.2
  3
txt
  4

  0
ENDTAB
  0
TABLE
  2
VIEW
  5
6
330
0
100
AcDbSymbolTable
 70
     0
  0
ENDTAB
  0
TABLE
  2
UCS
  5
7
330
0
100
AcDbSymbolTable
 70
     0
  0
ENDTAB
  0
TABLE
  2
APPID
  5
9
330
0
100
AcDbSymbolTable
 70
     1
  0
APPID
  5
12
330
9
100
AcDbSymbolTableRecord
100
AcDbRegAppTableRecord
  2
ACAD
 70
     0
  0
ENDTAB
  0
TABLE
  2
DIMSTYLE
  5
A
330
0
100
AcDbSymbolTable
 70
     1
  0
DIMSTYLE
105
27
330
A
100
AcDbSymbolTableRecord
100
AcDbDimStyleTableRecord
  2
STANDARD
 70
     0
  3

  4

  5

  6

  7

 40
1.0
 41
0.18
 42
0.0625
 43
0.38
 44
0.18
 45
0.0
 46
0.0
 47
0.0
 48
0.0
140
0.18
141
0.09
142
0.0
143
25.4
144
1.0
145
0.0
146
1.0
147
0.09
 71
     0
 72
     0
 73
     1
 74
     1
 75
     0
 76
     0
 77
     0
 78
     0
170
     0
171
     2
172
     0
173
     0
174
     0
175
     0
176
     0
177
     0
178
     0
270
     2
271
     4
272
     4
273
     2
274
     2
340
11
275
     0
280
     0
281
     0
282
     0
283
     1
284
     0
285
     0
286
     0
287
     3
288
     0
  0
ENDTAB
  0
TABLE
  2
BLOCK_RECORD
  5
1
330
0
100
AcDbSymbolTable
 70
     1
  0
BLOCK_RECORD
  5
1F
330
1
100
AcDbSymbolTableRecord
100
AcDbBlockTableRecord
  2
*MODEL_SPACE
  0
BLOCK_RECORD
  5
1B
330
1
100
AcDbSymbolTableRecord
100
AcDbBlockTableRecord
  2
*PAPER_SPACE
  0
ENDTAB
  0
ENDSEC
  0
SECTION
  2
BLOCKS
  0
BLOCK
  5
20
330
1F
100
AcDbEntity
  8
0
100
AcDbBlockBegin
  2
*MODEL_SPACE
 70
     0
 10
0.0
 20
0.0
 30
0.0
  3
*MODEL_SPACE
  1

  0
ENDBLK
  5
21
330
1F
100
AcDbEntity
  8
0
100
AcDbBlockEnd
  0
BLOCK
  5
1C
330
1B
100
AcDbEntity
 67
     1
  8
0
100
AcDbBlockBegin
  2
*PAPER_SPACE
 70
     0
 10
0.0
 20
0.0
 30
0.0
  3
*PAPER_SPACE
  1

  0
ENDBLK
  5
1D
330
1B
100
AcDbEntity
 67
     1
  8
0
100
AcDbBlockEnd
  0
ENDSEC
  0
SECTION
  2
ENTITIES
  0
SPLINE
  5
41
330
1F
100
AcDbEntity
  8
LIVELLO_1
 62
   250
100
AcDbSpline
210
0.0
220
0.0
230
1.0
 70
    11
 71
     3
 72
   989
 73
   985
 74
     0
 42
0.0000000001
 43
0.0000000001
 12
1.0
 22
0.0
 32
0.0
 13
1.0
 23
0.0
 33
0.0
 40
0.0
 40
0.0
 40
0.0
 40
0.0
 40
1.0
 40
1.0
 40
1.0
 40
2.0
 40
2.0
 40
2.0
 40
3.0
 40
3.0
 40
3.0
 40
4.0
 40
4.0
 40
4.0
 40
5.0
 40
5.0
 40
5.0
 40
6.0
 40
6.0
 40
6.0
 40
7.0
 40
7.0
 40
7.0
 40
8.0
 40
8.0
 40
8.0
 40
9.0
 40
9.0
 40
9.0
 40
10.0
 40
10.0
 40
10.0
 40
11.0
 40
11.0
 40
11.0
 40
12.0
 40
12.0
 40
12.0
 40
13.0
 40
13.0
 40
13.0
 40
14.0
 40
14.0
 40
14.0
 40
15.0
 40
15.0
 40
15.0
 40
16.0
 40
16.0
 40
16.0
 40
17.0
 40
17.0
 40
17.0
 40
18.0
 40
18.0
 40
18.0
 40
19.0
 40
19.0
 40
19.0
 40
20.0
 40
20.0
 40
20.0
 40
21.0
 40
21.0
 40
21.0
 40
22.0
 40
22.0
 40
22.0
 40
23.0
 40
23.0
 40
23.0
 40
24.0
 40
24.0
 40
24.0
 40
25.0
 40
25.0
 40
25.0
 40
26.0
 40
26.0
 40
26.0
 40
27.0
 40
27.0
 40
27.0
 40
28.0
 40
28.0
 40
28.0
 40
29.0
 40
29.0
 40
29.0
 40
30.0
 40
30.0
 40
30.0
 40
31.0
 40
31.0
 40
31.0
 40
32.0
 40
32.0
 40
32.0
 40
33.0
 40
33.0
 40
33.0
 40
34.0
 40
34.0
 40
34.0
 40
35.0
 40
35.0
 40
35.0
 40
36.0
 40
36.0
 40
36.0
 40
37.0
 40
37.0
 40
37.0
 40
38.0
 40
38.0
 40
38.0
 40
39.0
 40
39.0
 40
39.0
 40
40.0
 40
40.0
 40
40.0
 40
41.0
 40
41.0
 40
41.0
 40
42.0
 40
42.0
 40
42.0
 40
43.0
 40
43.0
 40
43.0
 40
44.0
 40
44.0
 40
44.0
 40
45.0
 40
45.0
 40
45.0
 40
46.0
 40
46.0
 40
46.0
 40
47.0
 40
47.0
 40
47.0
 40
48.0
 40
48.0
 40
48.0
 40
49.0
 40
49.0
 40
49.0
 40
50.0
 40
50.0
 40
50.0
 40
51.0
 40
51.0
 40
51.0
 40
52.0
 40
52.0
 40
52.0
 40
53.0
 40
53.0
 40
53.0
 40
54.0
 40
54.0
 40
54.0
 40
55.0
 40
55.0
 40
55.0
 40
56.0
 40
56.0
 40
56.0
 40
57.0
 40
57.0
 40
57.0
 40
58.0
 40
58.0
 40
58.0
 40
59.0
 40
59.0
 40
59.0
 40
60.0
 40
60.0
 40
60.0
 40
61.0
 40
61.0
 40
61.0
 40
62.0
 40
62.0
 40
62.0
 40
63.0
 40
63.0
 40
63.0
 40
64.0
 40
64.0
 40
64.0
 40
65.0
 40
65.0
 40
65.0
 40
66.0
 40
66.0
 40
66.0
 40
67.0
 40
67.0
 40
67.0
 40
68.0
 40
68.0
 40
68.0
 40
69.0
 40
69.0
 40
69.0
 40
70.0
 40
70.0
 40
70.0
 40
71.0
 40
71.0
 40
71.0
 40
72.0
 40
72.0
 40
72.0
 40
73.0
 40
73.0
 40
73.0
 40
74.0
 40
74.0
 40
74.0
 40
75.0
 40
75.0
 40
75.0
 40
76.0
 40
76.0
 40
76.0
 40
77.0
 40
77.0
 40
77.0
 40
78.0
 40
78.0
 40
78.0
 40
79.0
 40
79.0
 40
79.0
 40
80.0
 40
80.0
 40
80.0
 40
81.0
 40
81.0
 40
81.0
 40
82.0
 40
82.0
 40
82.0
 40
83.0
 40
83.0
 40
83.0
 40
84.0
 40
84.0
 40
84.0
 40
85.0
 40
85.0
 40
85.0
 40
86.0
 40
86.0
 40
86.0
 40
87.0
 40
87.0
 40
87.0
 40
88.0
 40
88.0
 40
88.0
 40
89.0
 40
89.0
 40
89.0
 40
90.0
 40
90.0
 40
90.0
 40
91.0
 40
91.0
 40
91.0
 40
92.0
 40
92.0
 40
92.0
 40
93.0
 40
93.0
 40
93.0
 40
94.0
 40
94.0
 40
94.0
 40
95.0
 40
95.0
 40
95.0
 40
96.0
 40
96.0
 40
96.0
 40
97.0
 40
97.0
 40
97.0
 40
98.0
 40
98.0
 40
98.0
 40
99.0
 40
99.0
 40
99.0
 40
100.0
 40
100.0
 40
100.0
 40
101.0
 40
101.0
 40
101.0
 40
102.0
 40
102.0
 40
102.0
 40
103.0
 40
103.0
 40
103.0
 40
104.0
 40
104.0
 40
104.0
 40
105.0
 40
105.0
 40
105.0
 40
106.0
 40
106.0
 40
106.0
 40
107.0
 40
107.0
 40
107.0
 40
108.0
 40
108.0
 40
108.0
 40
109.0
 40
109.0
 40
109.0
 40
110.0
 40
110.0
 40
110.0
 40
111.0
 40
111.0
 40
111.0
 40
112.0
 40
112.0
 40
112.0
 40
113.0
 40
113.0
 40
113.0
 40
114.0
 40
114.0
 40
114.0
 40
115.0
 40
115.0
 40
115.0
 40
116.0
 40
116.0
 40
116.0
 40
117.0
 40
117.0
 40
117.0
 40
118.0
 40
118.0
 40
118.0
 40
119.0
 40
119.0
 40
119.0
 40
120.0
 40
120.0
 40
120.0
 40
121.0
 40
121.0
 40
121.0
 40
122.0
 40
122.0
 40
122.0
 40
123.0
 40
123.0
 40
123.0
 40
124.0
 40
124.0
 40
124.0
 40
125.0
 40
125.0
 40
125.0
 40
126.0
 40
126.0
 40
126.0
 40
127.0
 40
127.0
 40
127.0
 40
128.0
 40
128.0
 40
128.0
 40
129.0
 40
129.0
 40
129.0
 40
130.0
 40
130.0
 40
130.0
 40
131.0
 40
131.0
 40
131.0
 40
132.0
 40
132.0
 40
132.0
 40
133.0
 40
133.0
 40
133.0
 40
134.0
 40
134.0
 40
134.0
 40
135.0
 40
135.0
 40
135.0
 40
136.0
 40
136.0
 40
136.0
 40
137.0
 40
137.0
 40
137.0
 40
138.0
 40
138.0
 40
138.0
 40
139.0
 40
139.0
 40
139.0
 40
140.0
 40
140.0
 40
140.0
 40
141.0
 40
141.0
 40
141.0
 40
142.0
 40
142.0
 40
142.0
 40
143.0
 40
143.0
 40
143.0
 40
144.0
 40
144.0
 40
144.0
 40
145.0
 40
145.0
 40
145.0
 40
146.0
 40
146.0
 40
146.0
 40
147.0
 40
147.0
 40
147.0
 40
148.0
 40
148.0
 40
148.0
 40
149.0
 40
149.0
 40
149.0
 40
150.0
 40
150.0
 40
150.0
 40
151.0
 40
151.0
 40
151.0
 40
152.0
 40
152.0
 40
152.0
 40
153.0
 40
153.0
 40
153.0
 40
154.0
 40
154.0
 40
154.0
 40
155.0
 40
155.0
 40
155.0
 40
156.0
 40
156.0
 40
156.0
 40
157.0
 40
157.0
 40
157.0
 40
158.0
 40
158.0
 40
158.0
 40
159.0
 40
159.0
 40
159.0
 40
160.0
 40
160.0
 40
160.0
 40
161.0
 40
161.0
 40
161.0
 40
162.0
 40
162.0
 40
162.0
 40
163.0
 40
163.0
 40
163.0
 40
164.0
 40
164.0
 40
164.0
 40
165.0
 40
165.0
 40
165.0
 40
166.0
 40
166.0
 40
166.0
 40
167.0
 40
167.0
 40
167.0
 40
168.0
 40
168.0
 40
168.0
 40
169.0
 40
169.0
 40
169.0
 40
170.0
 40
170.0
 40
170.0
 40
171.0
 40
171.0
 40
171.0
 40
172.0
 40
172.0
 40
172.0
 40
173.0
 40
173.0
 40
173.0
 40
174.0
 40
174.0
 40
174.0
 40
175.0
 40
175.0
 40
175.0
 40
176.0
 40
176.0
 40
176.0
 40
177.0
 40
177.0
 40
177.0
 40
178.0
 40
178.0
 40
178.0
 40
179.0
 40
179.0
 40
179.0
 40
180.0
 40
180.0
 40
180.0
 40
181.0
 40
181.0
 40
181.0
 40
182.0
 40
182.0
 40
182.0
 40
183.0
 40
183.0
 40
183.0
 40
184.0
 40
184.0
 40
184.0
 40
185.0
 40
185.0
 40
185.0
 40
186.0
 40
186.0
 40
186.0
 40
187.0
 40
187.0
 40
187.0
 40
188.0
 40
188.0
 40
188.0
 40
189.0
 40
189.0
 40
189.0
 40
190.0
 40
190.0
 40
190.0
 40
191.0
 40
191.0
 40
191.0
 40
192.0
 40
192.0
 40
192.0
 40
193.0
 40
193.0
 40
193.0
 40
194.0
 40
194.0
 40
194.0
 40
195.0
 40
195.0
 40
195.0
 40
196.0
 40
196.0
 40
196.0
 40
197.0
 40
197.0
 40
197.0
 40
198.0
 40
198.0
 40
198.0
 40
199.0
 40
199.0
 40
199.0
 40
200.0
 40
200.0
 40
200.0
 40
201.0
 40
201.0
 40
201.0
 40
202.0
 40
202.0
 40
202.0
 40
203.0
 40
203.0
 40
203.0
 40
204.0
 40
204.0
 40
204.0
 40
205.0
 40
205.0
 40
205.0
 40
206.0
 40
206.0
 40
206.0
 40
207.0
 40
207.0
 40
207.0
 40
208.0
 40
208.0
 40
208.0
 40
209.0
 40
209.0
 40
209.0
 40
210.0
 40
210.0
 40
210.0
 40
211.0
 40
211.0
 40
211.0
 40
212.0
 40
212.0
 40
212.0
 40
213.0
 40
213.0
 40
213.0
 40
214.0
 40
214.0
 40
214.0
 40
215.0
 40
215.0
 40
215.0
 40
216.0
 40
216.0
 40
216.0
 40
217.0
 40
217.0
 40
217.0
 40
218.0
 40
218.0
 40
218.0
 40
219.0
 40
219.0
 40
219.0
 40
220.0
 40
220.0
 40
220.0
 40
221.0
 40
221.0
 40
221.0
 40
222.0
 40
222.0
 40
222.0
 40
223.0
 40
223.0
 40
223.0
 40
224.0
 40
224.0
 40
224.0
 40
225.0
 40
225.0
 40
225.0
 40
226.0
 40
226.0
 40
226.0
 40
227.0
 40
227.0
 40
227.0
 40
228.0
 40
228.0
 40
228.0
 40
229.0
 40
229.0
 40
229.0
 40
230.0
 40
230.0
 40
230.0
 40
231.0
 40
231.0
 40
231.0
 40
232.0
 40
232.0
 40
232.0
 40
233.0
 40
233.0
 40
233.0
 40
234.0
 40
234.0
 40
234.0
 40
235.0
 40
235.0
 40
235.0
 40
236.0
 40
236.0
 40
236.0
 40
237.0
 40
237.0
 40
237.0
 40
238.0
 40
238.0
 40
238.0
 40
239.0
 40
239.0
 40
239.0
 40
240.0
 40
240.0
 40
240.0
 40
241.0
 40
241.0
 40
241.0
 40
242.0
 40
242.0
 40
242.0
 40
243.0
 40
243.0
 40
243.0
 40
244.0
 40
244.0
 40
244.0
 40
245.0
 40
245.0
 40
245.0
 40
246.0
 40
246.0
 40
246.0
 40
247.0
 40
247.0
 40
247.0
 40
248.0
 40
248.0
 40
248.0
 40
249.0
 40
249.0
 40
249.0
 40
250.0
 40
250.0
 40
250.0
 40
251.0
 40
251.0
 40
251.0
 40
252.0
 40
252.0
 40
252.0
 40
253.0
 40
253.0
 40
253.0
 40
254.0
 40
254.0
 40
254.0
 40
255.0
 40
255.0
 40
255.0
 40
256.0
 40
256.0
 40
256.0
 40
257.0
 40
257.0
 40
257.0
 40
258.0
 40
258.0
 40
258.0
 40
259.0
 40
259.0
 40
259.0
 40
260.0
 40
260.0
 40
260.0
 40
261.0
 40
261.0
 40
261.0
 40
262.0
 40
262.0
 40
262.0
 40
263.0
 40
263.0
 40
263.0
 40
264.0
 40
264.0
 40
264.0
 40
265.0
 40
265.0
 40
265.0
 40
266.0
 40
266.0
 40
266.0
 40
267.0
 40
267.0
 40
267.0
 40
268.0
 40
268.0
 40
268.0
 40
269.0
 40
269.0
 40
269.0
 40
270.0
 40
270.0
 40
270.0
 40
271.0
 40
271.0
 40
271.0
 40
272.0
 40
272.0
 40
272.0
 40
273.0
 40
273.0
 40
273.0
 40
274.0
 40
274.0
 40
274.0
 40
275.0
 40
275.0
 40
275.0
 40
276.0
 40
276.0
 40
276.0
 40
277.0
 40
277.0
 40
277.0
 40
278.0
 40
278.0
 40
278.0
 40
279.0
 40
279.0
 40
279.0
 40
280.0
 40
280.0
 40
280.0
 40
281.0
 40
281.0
 40
281.0
 40
282.0
 40
282.0
 40
282.0
 40
283.0
 40
283.0
 40
283.0
 40
284.0
 40
284.0
 40
284.0
 40
285.0
 40
285.0
 40
285.0
 40
286.0
 40
286.0
 40
286.0
 40
287.0
 40
287.0
 40
287.0
 40
288.0
 40
288.0
 40
288.0
 40
289.0
 40
289.0
 40
289.0
 40
290.0
 40
290.0
 40
290.0
 40
291.0
 40
291.0
 40
291.0
 40
292.0
 40
292.0
 40
292.0
 40
293.0
 40
293.0
 40
293.0
 40
294.0
 40
294.0
 40
294.0
 40
295.0
 40
295.0
 40
295.0
 40
296.0
 40
296.0
 40
296.0
 40
297.0
 40
297.0
 40
297.0
 40
298.0
 40
298.0
 40
298.0
 40
299.0
 40
299.0
 40
299.0
 40
300.0
 40
300.0
 40
300.0
 40
301.0
 40
301.0
 40
301.0
 40
302.0
 40
302.0
 40
302.0
 40
303.0
 40
303.0
 40
303.0
 40
304.0
 40
304.0
 40
304.0
 40
305.0
 40
305.0
 40
305.0
 40
306.0
 40
306.0
 40
306.0
 40
307.0
 40
307.0
 40
307.0
 40
308.0
 40
308.0
 40
308.0
 40
309.0
 40
309.0
 40
309.0
 40
310.0
 40
310.0
 40
310.0
 40
311.0
 40
311.0
 40
311.0
 40
312.0
 40
312.0
 40
312.0
 40
313.0
 40
313.0
 40
313.0
 40
314.0
 40
314.0
 40
314.0
 40
315.0
 40
315.0
 40
315.0
 40
316.0
 40
316.0
 40
316.0
 40
317.0
 40
317.0
 40
317.0
 40
318.0
 40
318.0
 40
318.0
 40
319.0
 40
319.0
 40
319.0
 40
320.0
 40
320.0
 40
320.0
 40
321.0
 40
321.0
 40
321.0
 40
322.0
 40
322.0
 40
322.0
 40
323.0
 40
323.0
 40
323.0
 40
324.0
 40
324.0
 40
324.0
 40
325.0
 40
325.0
 40
325.0
 40
326.0
 40
326.0
 40
326.0
 40
327.0
 40
327.0
 40
327.0
 40
328.0
 40
328.0
 40
328.0
 40
328.0
 10
120.6615335952554
 20
-134.9605324311306
 30
0.0
 10
120.6416517211916
 20
-134.6271242832809
 30
0.0
 10
120.6118565356146
 20
-134.3144530724582
 30
0.0
 10
120.5735695242546
 20
-134.0202347127195
 30
0.0
 10
120.5352825128946
 20
-133.7260163529807
 30
0.0
 10
120.488503675751
 20
-133.4502508443263
 30
0.0
 10
120.4346544985528
 20
-133.1906541008136
 30
0.0
 10
120.3808053213538
 20
-132.931057357301
 30
0.0
 10
120.3198858041009
 20
-132.6876293789302
 30
0.0
 10
120.2533174325215
 20
-132.4580860797592
 30
0.0
 10
120.1867490609415
 20
-132.2285427805878
 30
0.0
 10
120.1145318350364
 20
-132.0128841606166
 30
0.0
 10
120.0380872405326
 20
-131.8088261339022
 30
0.0
 10
119.9616426460287
 20
-131.604768107188
 30
0.0
 10
119.880970682928
 20
-131.4123106737313
 30
0.0
 10
119.7974928369582
 20
-131.2291697475895
 30
0.0
 10
119.7140149909883
 20
-131.0460288214478
 30
0.0
 10
119.6277312621493
 20
-130.8722044026209
 30
0.0
 10
119.5400631361706
 20
-130.7054124051672
 30
0.0
 10
119.4523950101913
 20
-130.5386204077134
 30
0.0
 10
119.3633424870718
 20
-130.3788608316321
 30
0.0
 10
119.2743270525409
 20
-130.2238495909815
 30
0.0
 10
119.18531161801
 20
-130.0688383503309
 30
0.0
 10
119.0963332720672
 20
-129.9185754451104
 30
0.0
 10
119.008813500442
 20
-129.7707767893784
 30
0.0
 10
118.8873929659969
 20
-129.5657157437932
 30
0.0
 10
118.7691615853032
 20
-129.3660406120404
 30
0.0
 10
118.6579993493291
 20
-129.1638125601856
 30
0.0
 10
118.546837113355
 20
-128.9615845083309
 30
0.0
 10
118.4427440221017
 20
-128.7568035363745
 30
0.0
 10
118.3496000665353
 20
-128.5415308103822
 30
0.0
 10
118.2564561109696
 20
-128.3262580843898
 30
0.0
 10
118.1742612910921
 20
-128.1004936043614
 30
0.0
 10
118.1068955978708
 20
-127.8562985363632
 30
0.0
 10
118.0395299046495
 20
-127.612103468365
 30
0.0
 10
117.9869933380837
 20
-127.3494778123968
 30
0.0
 10
117.9531658891436
 20
-127.0604827345243
 30
0.0
 10
117.9193384402034
 20
-126.7714876566519
 30
0.0
 10
117.9042201088868
 20
-126.4561231568752
 30
0.0
 10
117.9116908861632
 20
-126.1064504012603
 30
0.0
 10
117.9191616634395
 20
-125.7567776456455
 30
0.0
 10
117.9492215493088
 20
-125.3727966341923
 30
0.0
 10
118.0057505347384
 20
-124.9465685329668
 30
0.0
 10
118.062279520168
 20
-124.5203404317414
 30
0.0
 10
118.1452776051585
 20
-124.0518652407436
 30
0.0
 10
118.258624780678
 20
-123.5332041260393
 30
0.0
 10
118.3719719561975
 20
-123.0145430113351
 30
0.0
 10
118.515668222246
 20
-122.4456959729242
 30
0.0
 10
118.6935935697908
 20
-121.8187241768727
 30
0.0
 10
119.0088549387209
 20
-120.7077947129842
 30
0.0
 10
119.2664081906616
 20
-119.6115787602956
 30
0.0
 10
119.4756547017126
 20
-118.5431040590322
 30
0.0
 10
119.6849012127635
 20
-117.4746293577685
 30
0.0
 10
119.845840982924
 20
-116.43389590793
 30
0.0
 10
119.9678753882943
 20
-115.4339314497422
 30
0.0
 10
120.0899097936639
 20
-114.4339669915541
 30
0.0
 10
120.1730388342432
 20
-113.4747715250165
 30
0.0
 10
120.2266638861311
 20
-112.5693727903549
 30
0.0
 10
120.280288938019
 20
-111.6639740556929
 30
0.0
 10
120.3044100012155
 20
-110.8123720529069
 30
0.0
 10
120.3084284518201
 20
-110.0275945222221
 30
0.0
 10
120.3124469024248
 20
-109.2428169915373
 30
0.0
 10
120.2963627404375
 20
-108.5248639329534
 30
0.0
 10
120.2695773419566
 20
-107.8867630866963
 30
0.0
 10
120.2427919434763
 20
-107.2486622404391
 30
0.0
 10
120.2053053085031
 20
-106.6904136065081
 30
0.0
 10
120.1665188131363
 20
-106.225044925129
 30
0.0
 10
120.1277323177695
 20
-105.7596762437499
 30
0.0
 10
120.0876459620093
 20
-105.3871875149228
 30
0.0
 10
120.0556611219551
 20
-105.1206064788726
 30
0.0
 10
120.0236762819002
 20
-104.8540254428224
 30
0.0
 10
119.999792957552
 20
-104.6933520995494
 30
0.0
 10
119.9934125250081
 20
-104.6516141892785
 30
0.0
 10
119.9934125250081
 20
-104.6516141892785
 30
0.0
 10
119.9928472643735
 20
-104.648274688948
 30
0.0
 10
119.9928472643735
 20
-104.648274688948
 30
0.0
 10
119.9928472643735
 20
-104.648274688948
 30
0.0
 10
119.9922820037382
 20
-104.6449351886178
 30
0.0
 10
119.9922820037382
 20
-104.6449351886178
 30
0.0
 10
119.9922820037382
 20
-104.6449351886178
 30
0.0
 10
119.9917167431029
 20
-104.6415956882872
 30
0.0
 10
119.9917167431029
 20
-104.6415956882872
 30
0.0
 10
119.9917167431029
 20
-104.6415956882872
 30
0.0
 10
119.9911514824676
 20
-104.6382561879567
 30
0.0
 10
119.9911514824676
 20
-104.6382561879567
 30
0.0
 10
119.9911514824676
 20
-104.6382561879567
 30
0.0
 10
119.9905862218323
 20
-104.6349166876262
 30
0.0
 10
119.9905862218323
 20
-104.6349166876262
 30
0.0
 10
119.9905862218323
 20
-104.6349166876262
 30
0.0
 10
119.9900209611977
 20
-104.6315771872957
 30
0.0
 10
119.9900209611977
 20
-104.6315771872957
 30
0.0
 10
119.9900209611977
 20
-104.6315771872957
 30
0.0
 10
119.989455700563
 20
-104.6282376869655
 30
0.0
 10
119.989455700563
 20
-104.6282376869655
 30
0.0
 10
119.989455700563
 20
-104.6282376869655
 30
0.0
 10
119.9888904399277
 20
-104.624898186635
 30
0.0
 10
119.9888904399277
 20
-104.624898186635
 30
0.0
 10
119.8634822679574
 20
-103.9636983716067
 30
0.0
 10
119.7208370998096
 20
-103.3142674264388
 30
0.0
 10
119.5610686583269
 20
-102.6768515901397
 30
0.0
 10
119.4013002168448
 20
-102.0394357538407
 30
0.0
 10
119.2244085020272
 20
-101.4140350264106
 30
0.0
 10
119.0305072367186
 20
-100.8008956468567
 30
0.0
 10
118.8366059714099
 20
-100.1877562673029
 30
0.0
 10
118.6256951556089
 20
-99.58687823562545
 30
0.0
 10
118.3978885121588
 20
-98.99850779083245
 30
0.0
 10
118.1700818687087
 20
-98.41013734603943
 30
0.0
 10
117.9253793976095
 20
-97.8342744881309
 30
0.0
 10
117.663894821703
 20
-97.2711654561143
 30
0.0
 10
117.4024102457973
 20
-96.70805642409772
 30
0.0
 10
117.1241435650849
 20
-96.15770121797307
 30
0.0
 10
116.8292085024086
 20
-95.62034607674882
 30
0.0
 10
116.534273439733
 20
-95.08299093552425
 30
0.0
 10
116.2226699950927
 20
-94.55863585919975
 30
0.0
 10
115.8945118913323
 20
-94.04752708678312
 30
0.0
 10
115.5663537875719
 20
-93.53641831436617
 30
0.0
 10
115.2216410246901
 20
-93.03855584585742
 30
0.0
 10
114.8604873255295
 20
-92.55418592026402
 30
0.0
 10
114.4993336263695
 20
-92.06981599467062
 30
0.0
 10
114.1217389909313
 20
-91.59893861199258
 30
0.0
 10
113.7278171420576
 20
-91.14180001123833
 30
0.0
 10
113.4093427126761
 20
-90.77220668258903
 30
0.0
 10
113.0789602233154
 20
-90.41145537967158
 30
0.0
 10
112.7371440393446
 20
-90.05967594574913
 30
0.0
 10
112.3953278553737
 20
-89.7078965118267
 30
0.0
 10
112.0420779767939
 20
-89.36508894689928
 30
0.0
 10
111.6778687689743
 20
-89.03138309423005
 30
0.0
 10
111.3136595611547
 20
-88.69767724156051
 30
0.0
 10
110.9384910240966
 20
-88.37307310114947
 30
0.0
 10
110.5528375231685
 20
-88.05770051625981
 30
0.0
 10
110.1671840222404
 20
-87.74232793137014
 30
0.0
 10
109.7710455574435
 20
-87.43618690200184
 30
0.0
 10
109.3648964941483
 20
-87.13940727141839
 30
0.0
 10
108.958747430853
 20
-86.84262764083495
 30
0.0
 10
108.5425877690581
 20
-86.55520940903605
 30
0.0
 10
108.1168918741346
 20
-86.27728241928486
 30
0.0
 10
107.691195979211
 20
-85.99935542953399
 30
0.0
 10
107.2559638511589
 20
-85.73091968183083
 30
0.0
 10
106.8116698553485
 20
-85.47210501943889
 30
0.0
 10
106.3673758595381
 20
-85.21329035704693
 30
0.0
 10
105.9140199959689
 20
-84.96409677996587
 30
0.0
 10
105.4520766300115
 20
-84.7246541314595
 30
0.0
 10
104.9901332640541
 20
-84.48521148295282
 30
0.0
 10
104.5196023957082
 20
-84.25551976302052
 30
0.0
 10
104.0409583903442
 20
-84.03570881492577
 30
0.0
 10
103.3414324167348
 20
-83.71446652096866
 30
0.0
 10
102.643307375733
 20
-83.42526557984779
 30
0.0
 10
101.9533055324859
 20
-83.16491039628463
 30
0.0
 10
101.2633036892385
 20
-82.90455521272114
 30
0.0
 10
100.5814250437457
 20
-82.67304578671502
 30
0.0
 10
99.91439186115366
 20
-82.46718652298678
 30
0.0
 10
99.24735867856164
 20
-82.26132725925854
 30
0.0
 10
98.59517095887101
 20
-82.08111815780818
 30
0.0
 10
97.96455096722785
 20
-81.9233636233568
 30
0.0
 10
97.33393097558502
 20
-81.76560908890512
 30
0.0
 10
96.72487871199031
 20
-81.63030912145244
 30
0.0
 10
96.1441164415898
 20
-81.51426812571958
 30
0.0
 10
95.56335417118929
 20
-81.39822712998671
 30
0.0
 10
95.01088189398361
 20
-81.30144510597303
 30
0.0
 10
94.4934218751192
 20
-81.22072645839997
 30
0.0
 10
93.9759618562551
 20
-81.1400078108269
 30
0.0
 10
93.49351409573192
 20
-81.07535253969384
 30
0.0
 10
93.05280085869705
 20
-81.02356504972221
 30
0.0
 10
92.6120876216625
 20
-80.97177755975058
 30
0.0
 10
92.2131089081156
 20
-80.93285785094007
 30
0.0
 10
91.86258698320405
 20
-80.90361032801117
 30
0.0
 10
91.51206505829249
 20
-80.8743628050826
 30
0.0
 10
91.20999992201564
 20
-80.85478746803564
 30
0.0
 10
90.96311383952055
 20
-80.84168872159174
 30
0.0
 10
90.96311383952055
 20
-80.84168872159174
 30
0.0
 10
90.96311383952055
 20
-80.83898885829575
 30
0.0
 10
90.96311383952055
 20
-80.83898885829575
 30
0.0
 10
90.96311383952055
 20
-80.83898885829575
 30
0.0
 10
90.96311383952055
 20
-80.83628899499945
 30
0.0
 10
90.96311383952055
 20
-80.83628899499945
 30
0.0
 10
90.96311383952055
 20
-80.83628899499945
 30
0.0
 10
90.96311383952055
 20
-80.83358913170346
 30
0.0
 10
90.96311383952055
 20
-80.83358913170346
 30
0.0
 10
90.96311383952055
 20
-80.83358913170346
 30
0.0
 10
90.96311383952055
 20
-80.83088926840747
 30
0.0
 10
90.96311383952055
 20
-80.83088926840747
 30
0.0
 10
90.96311383952055
 20
-80.83088926840747
 30
0.0
 10
90.96311383952055
 20
-80.82818940511149
 30
0.0
 10
90.96311383952055
 20
-80.82818940511149
 30
0.0
 10
90.96311383952055
 20
-80.82818940511149
 30
0.0
 10
90.96311383952055
 20
-80.8254895418155
 30
0.0
 10
90.96311383952055
 20
-80.8254895418155
 30
0.0
 10
90.96311383952055
 20
-80.8254895418155
 30
0.0
 10
90.96311383952055
 20
-80.82278967851919
 30
0.0
 10
90.96311383952055
 20
-80.82278967851919
 30
0.0
 10
90.96311383952055
 20
-80.82278967851919
 30
0.0
 10
90.96311383952055
 20
-80.8200898152232
 30
0.0
 10
90.96311383952055
 20
-80.8200898152232
 30
0.0
 10
90.96311383952055
 20
-80.8200898152232
 30
0.0
 10
90.8850643085712
 20
-80.81751639180605
 30
0.0
 10
90.8850643085712
 20
-80.81751639180605
 30
0.0
 10
90.8850643085712
 20
-80.81751639180605
 30
0.0
 10
90.80701477762187
 20
-80.81494296838859
 30
0.0
 10
90.80701477762187
 20
-80.81494296838859
 30
0.0
 10
90.80701477762187
 20
-80.81494296838859
 30
0.0
 10
90.72896524667286
 20
-80.81236954497145
 30
0.0
 10
90.72896524667286
 20
-80.81236954497145
 30
0.0
 10
90.72896524667286
 20
-80.81236954497145
 30
0.0
 10
90.65091571572353
 20
-80.8097961215543
 30
0.0
 10
90.65091571572353
 20
-80.8097961215543
 30
0.0
 10
90.65091571572353
 20
-80.8097961215543
 30
0.0
 10
90.5728661847742
 20
-80.80722269813717
 30
0.0
 10
90.5728661847742
 20
-80.80722269813717
 30
0.0
 10
90.5728661847742
 20
-80.80722269813717
 30
0.0
 10
90.49481665382518
 20
-80.80464927472002
 30
0.0
 10
90.49481665382518
 20
-80.80464927472002
 30
0.0
 10
90.49481665382518
 20
-80.80464927472002
 30
0.0
 10
90.41676712287585
 20
-80.80207585130256
 30
0.0
 10
90.41676712287585
 20
-80.80207585130256
 30
0.0
 10
90.41676712287585
 20
-80.80207585130256
 30
0.0
 10
90.33871759192652
 20
-80.79950242788541
 30
0.0
 10
90.33871759192652
 20
-80.79950242788541
 30
0.0
 10
90.33871759192652
 20
-80.79950242788541
 30
0.0
 10
90.33487870720047
 20
-80.79950242788541
 30
0.0
 10
90.33487870720047
 20
-80.79950242788541
 30
0.0
 10
90.33487870720047
 20
-80.79950242788541
 30
0.0
 10
90.33103982247442
 20
-80.79950242788541
 30
0.0
 10
90.33103982247442
 20
-80.79950242788541
 30
0.0
 10
90.33103982247442
 20
-80.79950242788541
 30
0.0
 10
90.32720093774839
 20
-80.79950242788541
 30
0.0
 10
90.32720093774839
 20
-80.79950242788541
 30
0.0
 10
90.32720093774839
 20
-80.79950242788541
 30
0.0
 10
90.32336205302234
 20
-80.79950242788541
 30
0.0
 10
90.32336205302234
 20
-80.79950242788541
 30
0.0
 10
90.32336205302234
 20
-80.79950242788541
 30
0.0
 10
90.3195231682963
 20
-80.79950242788541
 30
0.0
 10
90.3195231682963
 20
-80.79950242788541
 30
0.0
 10
90.3195231682963
 20
-80.79950242788541
 30
0.0
 10
90.31568428357025
 20
-80.79950242788541
 30
0.0
 10
90.31568428357025
 20
-80.79950242788541
 30
0.0
 10
90.31568428357025
 20
-80.79950242788541
 30
0.0
 10
90.3118453988442
 20
-80.79950242788541
 30
0.0
 10
90.3118453988442
 20
-80.79950242788541
 30
0.0
 10
90.3118453988442
 20
-80.79950242788541
 30
0.0
 10
90.30800651411816
 20
-80.79950242788541
 30
0.0
 10
90.30800651411816
 20
-80.79950242788541
 30
0.0
 10
90.30800651411816
 20
-80.79950242788541
 30
0.0
 10
90.3033112382797
 20
-80.79950242788541
 30
0.0
 10
90.3033112382797
 20
-80.79950242788541
 30
0.0
 10
90.3033112382797
 20
-80.79950242788541
 30
0.0
 10
90.29861596244125
 20
-80.79950242788541
 30
0.0
 10
90.29861596244125
 20
-80.79950242788541
 30
0.0
 10
90.29861596244125
 20
-80.79950242788541
 30
0.0
 10
90.2939206866031
 20
-80.79950242788541
 30
0.0
 10
90.2939206866031
 20
-80.79950242788541
 30
0.0
 10
90.2939206866031
 20
-80.79950242788541
 30
0.0
 10
90.28922541076464
 20
-80.79950242788541
 30
0.0
 10
90.28922541076464
 20
-80.79950242788541
 30
0.0
 10
90.28922541076464
 20
-80.79950242788541
 30
0.0
 10
90.28453013492619
 20
-80.79950242788541
 30
0.0
 10
90.28453013492619
 20
-80.79950242788541
 30
0.0
 10
90.28453013492619
 20
-80.79950242788541
 30
0.0
 10
90.27983485908804
 20
-80.79950242788541
 30
0.0
 10
90.27983485908804
 20
-80.79950242788541
 30
0.0
 10
90.27983485908804
 20
-80.79950242788541
 30
0.0
 10
90.27513958324958
 20
-80.79950242788541
 30
0.0
 10
90.27513958324958
 20
-80.79950242788541
 30
0.0
 10
90.27513958324958
 20
-80.79950242788541
 30
0.0
 10
90.27044430741113
 20
-80.79950242788541
 30
0.0
 10
90.27044430741113
 20
-80.79950242788541
 30
0.0
 10
90.27044430741113
 20
-80.79950242788541
 30
0.0
 10
90.15128906558576
 20
-80.80213216486206
 30
0.0
 10
90.15128906558576
 20
-80.80213216486206
 30
0.0
 10
90.15128906558576
 20
-80.80213216486206
 30
0.0
 10
90.03213382376005
 20
-80.80476190183902
 30
0.0
 10
90.03213382376005
 20
-80.80476190183902
 30
0.0
 10
90.03213382376005
 20
-80.80476190183902
 30
0.0
 10
89.91297858193435
 20
-80.80739163881567
 30
0.0
 10
89.91297858193435
 20
-80.80739163881567
 30
0.0
 10
89.91297858193435
 20
-80.80739163881567
 30
0.0
 10
89.79382334010899
 20
-80.81002137579232
 30
0.0
 10
89.79382334010899
 20
-80.81002137579232
 30
0.0
 10
89.79382334010899
 20
-80.81002137579232
 30
0.0
 10
89.67466809828328
 20
-80.81265111276896
 30
0.0
 10
89.67466809828328
 20
-80.81265111276896
 30
0.0
 10
89.67466809828328
 20
-80.81265111276896
 30
0.0
 10
89.55551285645758
 20
-80.8152808497456
 30
0.0
 10
89.55551285645758
 20
-80.8152808497456
 30
0.0
 10
89.55551285645758
 20
-80.8152808497456
 30
0.0
 10
89.4363576146322
 20
-80.81791058672256
 30
0.0
 10
89.4363576146322
 20
-80.81791058672256
 30
0.0
 10
89.4363576146322
 20
-80.81791058672256
 30
0.0
 10
89.3172023728065
 20
-80.8205403236992
 30
0.0
 10
89.3172023728065
 20
-80.8205403236992
 30
0.0
 10
89.3172023728065
 20
-80.8205403236992
 30
0.0
 10
89.3172023728065
 20
-80.82332625111465
 30
0.0
 10
89.3172023728065
 20
-80.82332625111465
 30
0.0
 10
89.3172023728065
 20
-80.82332625111465
 30
0.0
 10
89.3172023728065
 20
-80.82611217852978
 30
0.0
 10
89.3172023728065
 20
-80.82611217852978
 30
0.0
 10
89.3172023728065
 20
-80.82611217852978
 30
0.0
 10
89.3172023728065
 20
-80.82889810594521
 30
0.0
 10
89.3172023728065
 20
-80.82889810594521
 30
0.0
 10
89.3172023728065
 20
-80.82889810594521
 30
0.0
 10
89.3172023728065
 20
-80.83168403336066
 30
0.0
 10
89.3172023728065
 20
-80.83168403336066
 30
0.0
 10
89.3172023728065
 20
-80.83168403336066
 30
0.0
 10
89.3172023728065
 20
-80.83446996077579
 30
0.0
 10
89.3172023728065
 20
-80.83446996077579
 30
0.0
 10
89.3172023728065
 20
-80.83446996077579
 30
0.0
 10
89.3172023728065
 20
-80.83725588819124
 30
0.0
 10
89.3172023728065
 20
-80.83725588819124
 30
0.0
 10
89.3172023728065
 20
-80.83725588819124
 30
0.0
 10
89.3172023728065
 20
-80.84004181560667
 30
0.0
 10
89.3172023728065
 20
-80.84004181560667
 30
0.0
 10
89.3172023728065
 20
-80.84004181560667
 30
0.0
 10
89.3172023728065
 20
-80.8428277430218
 30
0.0
 10
89.3172023728065
 20
-80.8428277430218
 30
0.0
 10
89.07031629031172
 20
-80.85626012074312
 30
0.0
 10
88.77331193675002
 20
-80.87621796498638
 30
0.0
 10
88.43185244406052
 20
-80.90586469659772
 30
0.0
 10
88.09039295137134
 20
-80.93551142820905
 30
0.0
 10
87.70447831955371
 20
-80.97484704718846
 30
0.0
 10
87.27977168054741
 20
-81.02703497438176
 30
0.0
 10
86.85506504154111
 20
-81.07922290157505
 30
0.0
 10
86.39156639534548
 20
-81.14426313698192
 30
0.0
 10
85.89493887389932
 20
-81.22531910144816
 30
0.0
 10
85.39831135245316
 20
-81.30637506591474
 30
0.0
 10
84.8685549557565
 20
-81.40344675944068
 30
0.0
 10
84.31133281574776
 20
-81.51969760287183
 30
0.0
 10
83.75411067573903
 20
-81.63594844630298
 30
0.0
 10
83.16942279241857
 20
-81.77137843963932
 30
0.0
 10
82.56293229772454
 20
-81.92915100372699
 30
0.0
 10
81.95644180303084
 20
-82.08692356781434
 30
0.0
 10
81.32814869696355
 20
-82.26703870265302
 30
0.0
 10
80.68371611146151
 20
-82.47265982908822
 30
0.0
 10
80.03928352595945
 20
-82.6782809555234
 30
0.0
 10
79.37871146102326
 20
-82.90940807355543
 30
0.0
 10
78.70766304859046
 20
-83.16920460403009
 30
0.0
 10
78.03661463615798
 20
-83.42900113450473
 30
0.0
 10
77.35508987622951
 20
-83.71746707742172
 30
0.0
 10
76.66875190074323
 20
-84.03776585362714
 30
0.0
 10
76.19739253243465
 20
-84.25774149232049
 30
0.0
 10
75.73588936518867
 20
-84.48758528542639
 30
0.0
 10
75.28423172400042
 20
-84.72716780472875
 30
0.0
 10
74.83257408281152
 20
-84.9667503240311
 30
0.0
 10
74.39076196768035
 20
-85.21607156952959
 30
0.0
 10
73.95878470360068
 20
-85.47500211300814
 30
0.0
 10
73.52680743952136
 20
-85.73393265648669
 30
0.0
 10
73.10466502649324
 20
-86.00247249794529
 30
0.0
 10
72.69234678951173
 20
-86.28049220916722
 30
0.0
 10
72.28002855252991
 20
-86.55851192038948
 30
0.0
 10
71.87753449159439
 20
-86.84601150137505
 30
0.0
 10
71.48485393169962
 20
-87.14286152390787
 30
0.0
 10
71.09217337180485
 20
-87.43971154644069
 30
0.0
 10
70.70930631295084
 20
-87.74591201052107
 30
0.0
 10
70.33624208013171
 20
-88.06133348793229
 30
0.0
 10
69.9631778473126
 20
-88.37675496534318
 30
0.0
 10
69.59991644052869
 20
-88.70139745608525
 30
0.0
 10
69.24644718477411
 20
-89.03513153194173
 30
0.0
 10
68.89297792901954
 20
-89.36886560779854
 30
0.0
 10
68.54930082429495
 20
-89.71169126876946
 30
0.0
 10
68.21540519559416
 20
-90.06347908663871
 30
0.0
 10
67.88150956689336
 20
-90.41526690450797
 30
0.0
 10
67.55739541421669
 20
-90.77601687927557
 30
0.0
 10
67.24305206255858
 20
-91.1455995827248
 30
0.0
 10
66.85423243467979
 20
-91.60272649575916
 30
0.0
 10
66.48179633379547
 20
-92.07357319817245
 30
0.0
 10
66.1257645620559
 20
-92.55789369998423
 30
0.0
 10
65.76973279031601
 20
-93.04221420179633
 30
0.0
 10
65.43010534772023
 20
-93.54000850300692
 30
0.0
 10
65.10690303641817
 20
-94.05103061363684
 30
0.0
 10
64.78370072511613
 20
-94.56205272426675
 30
0.0
 10
64.47692354510717
 20
-95.08630264431599
 30
0.0
 10
64.18659229854093
 20
-95.62353438380475
 30
0.0
 10
63.89626105197437
 20
-96.16076612329351
 30
0.0
 10
63.62237573885086
 20
-96.71097968222179
 30
0.0
 10
63.36495716131904
 20
-97.27392907060978
 30
0.0
 10
63.10753858378723
 20
-97.83687845899777
 30
0.0
 10
62.86658674184713
 20
-98.41256367684548
 30
0.0
 10
62.64212243764805
 20
-99.00073873417342
 30
0.0
 10
62.41765813344896
 20
-99.58891379150135
 30
0.0
 10
62.20968136699057
 20
-100.1895786883095
 30
0.0
 10
62.0182129404225
 20
-100.8024874346178
 30
0.0
 10
61.82674451385444
 20
-101.4153961809261
 30
0.0
 10
61.65178442717669
 20
-102.0405487767347
 30
0.0
 10
61.49335348253826
 20
-102.677699232064
 30
0.0
 10
61.33492253789984
 20
-103.3148496873937
 30
0.0
 10
61.19302073530071
 20
-103.9639980022439
 30
0.0
 10
61.0676688768899
 20
-104.624898186635
 30
0.0
 10
61.0676688768899
 20
-104.624898186635
 30
0.0
 10
61.06805563416642
 20
-104.6321753860507
 30
0.0
 10
61.06805563416642
 20
-104.6321753860507
 30
0.0
 10
61.06805563416642
 20
-104.6321753860507
 30
0.0
 10
61.06844239144294
 20
-104.6394525854661
 30
0.0
 10
61.06844239144294
 20
-104.6394525854661
 30
0.0
 10
61.06844239144294
 20
-104.6394525854661
 30
0.0
 10
61.06882914871947
 20
-104.6467297848818
 30
0.0
 10
61.06882914871947
 20
-104.6467297848818
 30
0.0
 10
61.06882914871947
 20
-104.6467297848818
 30
0.0
 10
61.06921590599598
 20
-104.6540069842975
 30
0.0
 10
61.06921590599598
 20
-104.6540069842975
 30
0.0
 10
61.06921590599598
 20
-104.6540069842975
 30
0.0
 10
61.06960266327251
 20
-104.6612841837133
 30
0.0
 10
61.06960266327251
 20
-104.6612841837133
 30
0.0
 10
61.06960266327251
 20
-104.6612841837133
 30
0.0
 10
61.06998942054903
 20
-104.668561383129
 30
0.0
 10
61.06998942054903
 20
-104.668561383129
 30
0.0
 10
61.06998942054903
 20
-104.668561383129
 30
0.0
 10
61.07037617782587
 20
-104.6758385825444
 30
0.0
 10
61.07037617782587
 20
-104.6758385825444
 30
0.0
 10
61.07037617782587
 20
-104.6758385825444
 30
0.0
 10
61.07076293510239
 20
-104.6831157819601
 30
0.0
 10
61.07076293510239
 20
-104.6831157819601
 30
0.0
 10
61.06615159834312
 20
-104.7247782533117
 30
0.0
 10
61.04914769248869
 20
-104.8851494424621
 30
0.0
 10
61.0278387046604
 20
-105.1512286370393
 30
0.0
 10
61.00652971683212
 20
-105.4173078316165
 30
0.0
 10
60.98091564702998
 20
-105.7890950316198
 30
0.0
 10
60.95908398237561
 20
-106.2535895246767
 30
0.0
 10
60.93725231772125
 20
-106.7180840177337
 30
0.0
 10
60.91920305821465
 20
-107.2752858038436
 30
0.0
 10
60.91302369097745
 20
-107.9121941706341
 30
0.0
 10
60.90684432374058
 20
-108.5491025374242
 30
0.0
 10
60.91253484877246
 20
-109.2657174848949
 30
0.0
 10
60.93818275319568
 20
-110.0490383006723
 30
0.0
 10
60.96383065761891
 20
-110.83235911645
 30
0.0
 10
61.00943594143283
 20
-111.6823858005349
 30
0.0
 10
61.08308609175909
 20
-112.586117640554
 30
0.0
 10
61.15673624208534
 20
-113.4898494805731
 30
0.0
 10
61.25843125892392
 20
-114.4472864765261
 30
0.0
 10
61.39625862939678
 20
-115.4454279160403
 30
0.0
 10
61.53408599986963
 20
-116.4435693555546
 30
0.0
 10
61.70804572397644
 20
-117.4824152386296
 30
0.0
 10
61.92622528883851
 20
-118.5489648528927
 30
0.0
 10
62.14440485370089
 20
-119.6155144671558
 30
0.0
 10
62.40680425931853
 20
-120.709767812607
 30
0.0
 10
62.72151099281371
 20
-121.8187241768727
 30
0.0
 10
62.89981565999572
 20
-122.4470613111121
 30
0.0
 10
63.04408356179903
 20
-123.0171125831171
 30
0.0
 10
63.15817121414059
 20
-123.5368373965453
 30
0.0
 10
63.27225886648217
 20
-124.0565622099735
 30
0.0
 10
63.356166269362
 20
-124.5259605648245
 30
0.0
 10
63.41374993869741
 20
-124.9529918647551
 30
0.0
 10
63.47133360803281
 20
-125.3800231646858
 30
0.0
 10
63.50259354382347
 20
-125.7646874096967
 30
0.0
 10
63.51138626198699
 20
-126.1149440034446
 30
0.0
 10
63.52017898015052
 20
-126.4652005971926
 30
0.0
 10
63.50650448068659
 20
-126.7810495396773
 30
0.0
 10
63.47421927951221
 20
-127.0704502345561
 30
0.0
 10
63.44193407833783
 20
-127.3598509294349
 30
0.0
 10
63.3910381754533
 20
-127.6228033767079
 30
0.0
 10
63.32538808677561
 20
-127.8672669800321
 30
0.0
 10
63.25973799809761
 20
-128.111730583356
 30
0.0
 10
63.17933372362675
 20
-128.3377053427315
 30
0.0
 10
63.08803177927973
 20
-128.5531506618147
 30
0.0
 10
62.99672983493271
 20
-128.7685959808979
 30
0.0
 10
62.89453022070951
 20
-128.9735118596895
 30
0.0
 10
62.78528945252775
 20
-129.1758577018462
 30
0.0
 10
62.67604868434567
 20
-129.3782035440029
 30
0.0
 10
62.55976676220472
 20
-129.5779793495248
 30
0.0
 10
62.44030020202188
 20
-129.7831445220693
 30
0.0
 10
62.35437633542227
 20
-129.9307147360034
 30
0.0
 10
62.26704144227536
 20
-130.0807454806054
 30
0.0
 10
62.17968101544464
 20
-130.2355087888571
 30
0.0
 10
62.09232058861392
 20
-130.3902720971087
 30
0.0
 10
62.0049346280997
 20
-130.5497679690094
 30
0.0
 10
61.91890862676615
 20
-130.716268437541
 30
0.0
 10
61.8328826254326
 20
-130.8827689060726
 30
0.0
 10
61.74821658327937
 20
-131.0562739712347
 30
0.0
 10
61.66629599317062
 20
-131.2390556660084
 30
0.0
 10
61.58437540306187
 20
-131.421837360782
 30
0.0
 10
61.5052002649976
 20
-131.6138956851672
 30
0.0
 10
61.43015607184161
 20
-131.8175026721454
 30
0.0
 10
61.35511187868562
 20
-132.0211096591236
 30
0.0
 10
61.28419863043824
 20
-132.2362653086942
 30
0.0
 10
61.21880181996329
 20
-132.4652416538391
 30
0.0
 10
61.15340500948835
 20
-132.6942179989841
 30
0.0
 10
61.09352463678582
 20
-132.9370150397033
 30
0.0
 10
61.04054619471988
 20
-133.1959048089771
 30
0.0
 10
60.98756775265393
 20
-133.4547945782509
 30
0.0
 10
60.94149124122391
 20
-133.7297770760799
 30
0.0
 10
60.9037021532946
 20
-134.023124335445
 30
0.0
 10
60.86591306536528
 20
-134.3164715948105
 30
0.0
 10
60.83641140093668
 20
-134.628183615712
 30
0.0
 10
60.81658265287196
 20
-134.9605324311306
 30
0.0
 10
60.80403004170315
 20
-135.1712099573861
 30
0.0
 10
60.80001318487841
 20
-135.3771337692039
 30
0.0
 10
60.8045052537688
 20
-135.5782288095072
 30
0.0
 10
60.80899732265885
 20
-135.7793238498107
 30
0.0
 10
60.82199831726405
 20
-135.9755901186
 30
0.0
 10
60.84348140895382
 20
-136.1669525587989
 30
0.0
 10
60.86496450064359
 20
-136.3583149989979
 30
0.0
 10
60.89492968941859
 20
-136.5447736106065
 30
0.0
 10
60.93335014664859
 20
-136.7262533365484
 30
0.0
 10
60.97177060387859
 20
-136.9077330624907
 30
0.0
 10
61.01864632956359
 20
-137.0842339027659
 30
0.0
 10
61.07395049507402
 20
-137.2556808002987
 30
0.0
 10
61.12925466058444
 20
-137.4271276978316
 30
0.0
 10
61.19298726592061
 20
-137.5935206526213
 30
0.0
 10
61.26512148245229
 20
-137.7547846075923
 30
0.0
 10
61.33725569898397
 20
-137.9160485625633
 30
0.0
 10
61.41779152671118
 20
-138.0721835177155
 30
0.0
 10
61.50670213700432
 20
-138.2231144159722
 30
0.0
 10
61.59561274729747
 20
-138.3740453142289
 30
0.0
 10
61.69289814015655
 20
-138.5197721555905
 30
0.0
 10
61.79853148695167
 20
-138.6602198829805
 30
0.0
 10
61.90416483374711
 20
-138.8006676103709
 30
0.0
 10
62.01814613447826
 20
-138.9358362237897
 30
0.0
 10
62.14044856051588
 20
-139.0656506661607
 30
0.0
 10
62.34923692622797
 20
-139.2872540854796
 30
0.0
 10
62.57594376187667
 20
-139.485292670817
 30
0.0
 10
62.81581596729332
 20
-139.6621950772413
 30
0.0
 10
63.05568817270997
 20
-139.8390974836658
 30
0.0
 10
63.30872574789427
 20
-139.9948637111771
 30
0.0
 10
63.57017559267792
 20
-140.1319224148444
 30
0.0
 10
63.83162543746189
 20
-140.2689811185117
 30
0.0
 10
64.10148755184488
 20
-140.3873322983343
 30
0.0
 10
64.37500883565862
 20
-140.4894046093811
 30
0.0
 10
64.64853011947234
 20
-140.5914769204275
 30
0.0
 10
64.92571057271681
 20
-140.6772703626984
 30
0.0
 10
65.2017970952237
 20
-140.7492135912617
 30
0.0
 10
65.47788361773027
 20
-140.8211568198249
 30
0.0
 10
65.75287620949896
 20
-140.8792498346808
 30
0.0
 10
66.02202177036179
 20
-140.9259212908979
 30
0.0
 10
66.29116733122397
 20
-140.9725927471147
 30
0.0
 10
66.55446586118029
 20
-141.007842644693
 30
0.0
 10
66.80716426006148
 20
-141.0340996387004
 30
0.0
 10
67.05986265894268
 20
-141.0603566327081
 30
0.0
 10
67.30196092674875
 20
-141.0776207231455
 30
0.0
 10
67.52870596331172
 20
-141.0883205650808
 30
0.0
 10
67.75545099987438
 20
-141.0990204070162
 30
0.0
 10
67.96684280519361
 20
-141.1031560004494
 30
0.0
 10
68.15812827910048
 20
-141.1031560004494
 30
0.0
 10
68.19091445845028
 20
-141.1031560004494
 30
0.0
 10
68.22322821484947
 20
-141.1030392560655
 30
0.0
 10
68.25504833110165
 20
-141.1028159276449
 30
0.0
 10
68.28686844735383
 20
-141.1025925992244
 30
0.0
 10
68.318194923459
 20
-141.1022626867674
 30
0.0
 10
68.34900654222143
 20
-141.101836350621
 30
0.0
 10
68.37981816098385
 20
-141.1014100144748
 30
0.0
 10
68.4101149224032
 20
-141.1008872546395
 30
0.0
 10
68.43987560928338
 20
-141.1002782314622
 30
0.0
 10
68.46963629616357
 20
-141.0996692082853
 30
0.0
 10
68.49886090850524
 20
-141.0989739217663
 30
0.0
 10
68.52752822911137
 20
-141.0982025322532
 30
0.0
 10
68.55619554971749
 20
-141.0974311427398
 30
0.0
 10
68.5843055785887
 20
-141.0965836502326
 30
0.0
 10
68.61183709852892
 20
-141.0956702150781
 30
0.0
 10
68.63936861846915
 20
-141.0947567799236
 30
0.0
 10
68.66632162947808
 20
-141.0937774021221
 30
0.0
 10
68.69267491435994
 20
-141.0927422420212
 30
0.0
 10
68.71902819924179
 20
-141.0917070819206
 30
0.0
 10
68.74478175799659
 20
-141.09061613952
 30
0.0
 10
68.76991437342794
 20
-141.0894795751677
 30
0.0
 10
68.79504698885927
 20
-141.0883430108155
 30
0.0
 10
68.81955866096715
 20
-141.087160824511
 30
0.0
 10
68.84342817255582
 20
-141.0859431766018
 30
0.0
 10
68.91268216302284
 20
-141.2526653133666
 30
0.0
 10
68.98715830642882
 20
-141.4393100983996
 30
0.0
 10
69.0639037601082
 20
-141.6413443565691
 30
0.0
 10
69.1406492137879
 20
-141.8433786147387
 30
0.0
 10
69.2196639777413
 20
-142.0608023460444
 30
0.0
 10
69.29799520930284
 20
-142.289082375354
 30
0.0
 10
69.3763264408647
 20
-142.5173624046639
 30
0.0
 10
69.453974140035
 20
-142.7564987319777
 30
0.0
 10
69.52798546414883
 20
-143.0019581821629
 30
0.0
 10
69.60199678826233
 20
-143.2474176323481
 30
0.0
 10
69.67237173731965
 20
-143.4992002054049
 30
0.0
 10
69.73615746865524
 20
-143.7527727262007
 30
0.0
 10
69.7999431999908
 20
-144.0063452469965
 30
0.0
 10
69.85713971360464
 20
-144.2617077155317
 30
0.0
 10
69.90479416683179
 20
-144.5143269566737
 30
0.0
 10
69.9524486200586
 20
-144.7669461978153
 30
0.0
 10
69.99056101289874
 20
-145.0168222115641
 30
0.0
 10
70.01617850268725
 20
-145.2594218227872
 30
0.0
 10
70.04179599247576
 20
-145.5020214340103
 30
0.0
 10
70.05491857921199
 20
-145.7373446427077
 30
0.0
 10
70.05259342023102
 20
-145.9608582737469
 30
0.0
 10
70.05026826125037
 20
-146.1843719047864
 30
0.0
 10
70.0324953565525
 20
-146.3960759581679
 30
0.0
 10
69.99632186347282
 20
-146.5914372587587
 30
0.0
 10
69.94967298580569
 20
-146.8433001848898
 30
0.0
 10
69.89336978587387
 20
-147.1473081389691
 30
0.0
 10
69.83863649243192
 20
-147.493644000748
 30
0.0
 10
69.78390319899029
 20
-147.8399798625266
 30
0.0
 10
69.73073981203821
 20
-148.2286436320045
 30
0.0
 10
69.6903705603306
 20
-148.6498181889323
 30
0.0
 10
69.65000130862268
 20
-149.0709927458601
 30
0.0
 10
69.62242619215922
 20
-149.5246780902374
 30
0.0
 10
69.6188694396945
 20
-150.0010571018155
 30
0.0
 10
69.61531268722979
 20
-150.4774361133935
 30
0.0
 10
69.63577429876382
 20
-150.9765087921714
 30
0.0
 10
69.69147850305053
 20
-151.488458017901
 30
0.0
 10
69.74718270733757
 20
-152.0004072436306
 30
0.0
 10
69.83812950437763
 20
-152.5252330163104
 30
0.0
 10
69.97554312292529
 20
-153.0531182156929
 30
0.0
 10
70.11295674147296
 20
-153.5810034150748
 30
0.0
 10
70.29683718152822
 20
-154.1119480411586
 30
0.0
 10
70.53840867184536
 20
-154.6361349736947
 30
0.0
 10
70.7799801621625
 20
-155.1603219062308
 30
0.0
 10
71.07924270274152
 20
-155.6777511452192
 30
0.0
 10
71.44742052233703
 20
-156.1786055704102
 30
0.0
 10
71.81559834193251
 20
-156.6794599956019
 30
0.0
 10
72.25269144054417
 20
-157.1637396069956
 30
0.0
 10
72.76992404692687
 20
-157.6216272843437
 30
0.0
 10
72.93154821277653
 20
-157.764701976198
 30
0.0
 10
73.08947294964875
 20
-157.9024128015092
 30
0.0
 10
73.24391795015379
 20
-158.0352460125903
 30
0.0
 10
73.39836295065884
 20
-158.1680792236721
 30
0.0
 10
73.5493282147967
 20
-158.2960348205232
 30
0.0
 10
73.69703343517706
 20
-158.4195990554574
 30
0.0
 10
73.84473865555742
 20
-158.5431632903916
 30
0.0
 10
73.98918383218026
 20
-158.6623361634082
 30
0.0
 10
74.13058865765588
 20
-158.7776039268198
 30
0.0
 10
74.2719934831315
 20
-158.892871690232
 30
0.0
 10
74.41035795745957
 20
-159.0042343440385
 30
0.0
 10
74.54590177324974
 20
-159.1121781405537
 30
0.0
 10
74.68144558904024
 20
-159.2201219370689
 30
0.0
 10
74.81416874629316
 20
-159.3246468762909
 30
0.0
 10
74.94429093761849
 20
-159.426239210534
 30
0.0
 10
75.07441312894382
 20
-159.5278315447766
 30
0.0
 10
75.20193435434153
 20
-159.6264912740397
 30
0.0
 10
75.32707430642164
 20
-159.7227046506358
 30
0.0
 10
75.4522142585014
 20
-159.8189180272312
 30
0.0
 10
75.57497293726387
 20
-159.9126850511604
 30
0.0
 10
75.69557003531868
 20
-160.0044919747344
 30
0.0
 10
75.81616713337317
 20
-160.096298898309
 30
0.0
 10
75.93460265072001
 20
-160.1861457215286
 30
0.0
 10
76.05109627996914
 20
-160.2745186967061
 30
0.0
 10
76.26063690983446
 20
-160.4334769998997
 30
0.0
 10
76.45979339901716
 20
-160.5845576470675
 30
0.0
 10
76.64955412353383
 20
-160.7303709011878
 30
0.0
 10
76.83931484805083
 20
-160.8761841553081
 30
0.0
 10
77.01967980790214
 20
-161.0167300163802
 30
0.0
 10
77.19163737910532
 20
-161.1546187473822
 30
0.0
 10
77.36359495030851
 20
-161.2925074783849
 30
0.0
 10
77.52714513286358
 20
-161.4277390793169
 30
0.0
 10
77.68327630278812
 20
-161.5629238131563
 30
0.0
 10
77.83940747271296
 20
-161.6981085469951
 30
0.0
 10
77.98811963000695
 20
-161.833246413742
 30
0.0
 10
78.13040115068765
 20
-161.9709476763733
 30
0.0
 10
78.27268267136836
 20
-162.1086489390045
 30
0.0
 10
78.40853355543642
 20
-162.2489135975207
 30
0.0
 10
78.53894217890844
 20
-162.3943519148994
 30
0.0
 10
78.66935080238046
 20
-162.5397902322781
 30
0.0
 10
78.79431716525711
 20
-162.6904022085185
 30
0.0
 10
78.91482964355593
 20
-162.8487981065996
 30
0.0
 10
79.03534212185443
 20
-163.0071940046808
 30
0.0
 10
79.15140071557481
 20
-163.1733738246012
 30
0.0
 10
79.26399380073461
 20
-163.3499478293392
 30
0.0
 10
79.37658688589474
 20
-163.5265218340771
 30
0.0
 10
79.48571446249399
 20
-163.7134900236325
 30
0.0
 10
79.59236490654995
 20
-163.9134626609823
 30
0.0
 10
79.67777557599386
 20
-164.073610986565
 30
0.0
 10
79.78150302755608
 20
-164.2289180726258
 30
0.0
 10
79.9037542534117
 20
-164.3794921965917
 30
0.0
 10
80.02600547926733
 20
-164.5300663205581
 30
0.0
 10
80.16678047941635
 20
-164.6759074824301
 30
0.0
 10
80.32628624603483
 20
-164.8171239596353
 30
0.0
 10
80.4857920126533
 20
-164.9583404368404
 30
0.0
 10
80.66402854574059
 20
-165.0949322293787
 30
0.0
 10
80.8612028374734
 20
-165.2270076146789
 30
0.0
 10
81.05837712920588
 20
-165.3590829999791
 30
0.0
 10
81.27448917958323
 20
-165.48664197804
 30
0.0
 10
81.5097459807812
 20
-165.6097928262903
 30
0.0
 10
81.74500278197917
 20
-165.7329436745406
 30
0.0
 10
81.99940433399775
 20
-165.8516863929796
 30
0.0
 10
82.27315762901266
 20
-165.9661292590357
 30
0.0
 10
82.54691092402726
 20
-166.0805721250911
 30
0.0
 10
82.84001596203854
 20
-166.1907151387641
 30
0.0
 10
83.15267973522157
 20
-166.2966665774816
 30
0.0
 10
83.4653435084046
 20
-166.4026180161984
 30
0.0
 10
83.7975660167594
 20
-166.5043778799611
 30
0.0
 10
84.14955425246202
 20
-166.602054446195
 30
0.0
 10
84.50154248816465
 20
-166.6997310124296
 30
0.0
 10
84.87329645121477
 20
-166.7933242811362
 30
0.0
 10
85.2650231337878
 20
-166.8829425297429
 30
0.0
 10
85.4735139939026
 20
-166.9306528648811
 30
0.0
 10
85.68075506487858
 20
-166.9757069000421
 30
0.0
 10
85.88572392025283
 20
-167.0182243181429
 30
0.0
 10
86.09069277562709
 20
-167.060741736243
 30
0.0
 10
86.29338941539929
 20
-167.100722537283
 30
0.0
 10
86.4927914131072
 20
-167.1382864041784
 30
0.0
 10
86.6921934108151
 20
-167.1758502710738
 30
0.0
 10
86.88830076645836
 20
-167.2109972038233
 30
0.0
 10
87.0800910535741
 20
-167.2438468853446
 30
0.0
 10
87.27188134069016
 20
-167.2766965668659
 30
0.0
 10
87.45935455927837
 20
-167.3072489971576
 30
0.0
 10
87.64148828287645
 20
-167.3356238591367
 30
0.0
 10
87.82362200647454
 20
-167.3639987211159
 30
0.0
 10
88.00041623508253
 20
-167.3901960147818
 30
0.0
 10
88.17084854223715
 20
-167.4143354230501
 30
0.0
 10
88.3412808493918
 20
-167.4384748313178
 30
0.0
 10
88.50535123509374
 20
-167.4605563541892
 30
0.0
 10
88.66203727287945
 20
-167.480699674578
 30
0.0
 10
88.81872331066513
 20
-167.5008429949675
 30
0.0
 10
88.96802500053523
 20
-167.5190481128757
 30
0.0
 10
89.10891991602652
 20
-167.5354347112175
 30
0.0
 10
89.2498148315178
 20
-167.5518213095594
 30
0.0
 10
89.38230297263026
 20
-167.5663893883357
 30
0.0
 10
89.5053619129013
 20
-167.5792586304614
 30
0.0
 10
89.5053619129013
 20
-167.5792586304614
 30
0.0
 10
89.6061281212494
 20
-167.5888627486561
 30
0.0
 10
89.6061281212494
 20
-167.5888627486561
 30
0.0
 10
89.6061281212494
 20
-167.5888627486561
 30
0.0
 10
89.70689432959783
 20
-167.5984668668515
 30
0.0
 10
89.70689432959783
 20
-167.5984668668515
 30
0.0
 10
89.70689432959783
 20
-167.5984668668515
 30
0.0
 10
89.80766053794625
 20
-167.6080709850462
 30
0.0
 10
89.80766053794625
 20
-167.6080709850462
 30
0.0
 10
89.80766053794625
 20
-167.6080709850462
 30
0.0
 10
89.90842674629435
 20
-167.6176751032409
 30
0.0
 10
89.90842674629435
 20
-167.6176751032409
 30
0.0
 10
89.90842674629435
 20
-167.6176751032409
 30
0.0
 10
90.00919295464246
 20
-167.6272792214362
 30
0.0
 10
90.00919295464246
 20
-167.6272792214362
 30
0.0
 10
90.00919295464246
 20
-167.6272792214362
 30
0.0
 10
90.10995916299088
 20
-167.6368833396309
 30
0.0
 10
90.10995916299088
 20
-167.6368833396309
 30
0.0
 10
90.10995916299088
 20
-167.6368833396309
 30
0.0
 10
90.2107253713393
 20
-167.6464874578257
 30
0.0
 10
90.2107253713393
 20
-167.6464874578257
 30
0.0
 10
90.2107253713393
 20
-167.6464874578257
 30
0.0
 10
90.3114915796874
 20
-167.656091576021
 30
0.0
 10
90.3114915796874
 20
-167.656091576021
 30
0.0
 10
90.3114915796874
 20
-167.656091576021
 30
0.0
 10
90.41209415995704
 20
-167.6471111570607
 30
0.0
 10
90.41209415995704
 20
-167.6471111570607
 30
0.0
 10
90.41209415995704
 20
-167.6471111570607
 30
0.0
 10
90.512696740227
 20
-167.6381307380998
 30
0.0
 10
90.512696740227
 20
-167.6381307380998
 30
0.0
 10
90.512696740227
 20
-167.6381307380998
 30
0.0
 10
90.61329932049662
 20
-167.6291503191389
 30
0.0
 10
90.61329932049662
 20
-167.6291503191389
 30
0.0
 10
90.61329932049662
 20
-167.6291503191389
 30
0.0
 10
90.71390190076626
 20
-167.6201699001786
 30
0.0
 10
90.71390190076626
 20
-167.6201699001786
 30
0.0
 10
90.71390190076626
 20
-167.6201699001786
 30
0.0
 10
90.8145044810359
 20
-167.6111894812183
 30
0.0
 10
90.8145044810359
 20
-167.6111894812183
 30
0.0
 10
90.8145044810359
 20
-167.6111894812183
 30
0.0
 10
90.91510706130553
 20
-167.602209062258
 30
0.0
 10
90.91510706130553
 20
-167.602209062258
 30
0.0
 10
90.91510706130553
 20
-167.602209062258
 30
0.0
 10
91.01570964157517
 20
-167.5932286432977
 30
0.0
 10
91.01570964157517
 20
-167.5932286432977
 30
0.0
 10
91.01570964157517
 20
-167.5932286432977
 30
0.0
 10
91.11631222184481
 20
-167.5842482243367
 30
0.0
 10
91.11631222184481
 20
-167.5842482243367
 30
0.0
 10
91.2370102426967
 20
-167.5720558074452
 30
0.0
 10
91.36981328817143
 20
-167.5580879196486
 30
0.0
 10
91.51330179835783
 20
-167.5422152323429
 30
0.0
 10
91.65679030854422
 20
-167.5263425450373
 30
0.0
 10
91.81096428344229
 20
-167.5085650582213
 30
0.0
 10
91.97440416314083
 20
-167.4887534432918
 30
0.0
 10
92.13784404283938
 20
-167.4689418283624
 30
0.0
 10
92.3105498273384
 20
-167.4470960853182
 30
0.0
 10
92.49110195672705
 20
-167.4230868855546
 30
0.0
 10
92.67165408611537
 20
-167.3990776857904
 30
0.0
 10
92.86005256039299
 20
-167.372905029307
 30
0.0
 10
93.05487781964905
 20
-167.3444395874991
 30
0.0
 10
93.24970307890479
 20
-167.3159741456912
 30
0.0
 10
93.45095512313863
 20
-167.2852159185582
 30
0.0
 10
93.65721439243973
 20
-167.252035577495
 30
0.0
 10
93.86347366174051
 20
-167.2188552364325
 30
0.0
 10
94.07474015610822
 20
-167.1832527814397
 30
0.0
 10
94.289594315632
 20
-167.1450988839129
 30
0.0
 10
94.50444847515547
 20
-167.106944986386
 30
0.0
 10
94.72289029983467
 20
-167.0662396463232
 30
0.0
 10
94.94350022975877
 20
-167.0228535351211
 30
0.0
 10
95.16411015968254
 20
-166.979467423919
 30
0.0
 10
95.38688819485087
 20
-166.9334005415765
 30
0.0
 10
95.61041477535291
 20
-166.8845235594895
 30
0.0
 10
96.01879964633865
 20
-166.79519962892
 30
0.0
 10
96.4061557857458
 20
-166.7018528648509
 30
0.0
 10
96.77269765659321
 20
-166.6043753218923
 30
0.0
 10
97.13923952744061
 20
-166.5068977789337
 30
0.0
 10
97.48496712972859
 20
-166.4052894570856
 30
0.0
 10
97.8100949264763
 20
-166.2994424109574
 30
0.0
 10
98.13522272322399
 20
-166.1935953648291
 30
0.0
 10
98.43975071443143
 20
-166.0835095944207
 30
0.0
 10
98.72389336311808
 20
-165.9690771543422
 30
0.0
 10
99.00803601180472
 20
-165.8546447142637
 30
0.0
 10
99.27179331797025
 20
-165.7358656045151
 30
0.0
 10
99.5153797446348
 20
-165.6126318797058
 30
0.0
 10
99.75896617129935
 20
-165.4893981548964
 30
0.0
 10
99.98238171846194
 20
-165.3617098150264
 30
0.0
 10
100.1858408491427
 20
-165.2294589147056
 30
0.0
 10
100.3892999798235
 20
-165.0972080143848
 30
0.0
 10
100.5728026940218
 20
-164.9603945536134
 30
0.0
 10
100.7365634547577
 20
-164.8189105869999
 30
0.0
 10
100.9003242154937
 20
-164.6774266203871
 30
0.0
 10
101.0443430227666
 20
-164.531272147933
 30
0.0
 10
101.1688343395961
 20
-164.3803392242476
 30
0.0
 10
101.2933256564255
 20
-164.2294063005622
 30
0.0
 10
101.3982894828114
 20
-164.0736949256448
 30
0.0
 10
101.4839402817737
 20
-163.9130971541063
 30
0.0
 10
101.5844716732038
 20
-163.7245976076148
 30
0.0
 10
101.6893389430856
 20
-163.547585363186
 30
0.0
 10
101.7990852549588
 20
-163.3798502464256
 30
0.0
 10
101.908831566832
 20
-163.2121151296646
 30
0.0
 10
102.0234569206963
 20
-163.053657140572
 30
0.0
 10
102.1435044800914
 20
-162.9022661047518
 30
0.0
 10
102.2635520394865
 20
-162.7508750689316
 30
0.0
 10
102.3890218044123
 20
-162.6065509863838
 30
0.0
 10
102.5204569384083
 20
-162.467083682713
 30
0.0
 10
102.6518920724044
 20
-162.3276163790422
 30
0.0
 10
102.7892925754711
 20
-162.1930058542484
 30
0.0
 10
102.9332016111476
 20
-162.0610419339361
 30
0.0
 10
103.0771106468241
 20
-161.9290780136238
 30
0.0
 10
103.2275282151104
 20
-161.7997606977931
 30
0.0
 10
103.3849974795461
 20
-161.6708798120485
 30
0.0
 10
103.5424667439819
 20
-161.5419989263039
 30
0.0
 10
103.7069877045673
 20
-161.4135544706454
 30
0.0
 10
103.8791035248414
 20
-161.2833362706783
 30
0.0
 10
104.0512193451159
 20
-161.1531180707106
 30
0.0
 10
104.2309300250793
 20
-161.0211261264336
 30
0.0
 10
104.4187787282712
 20
-160.8851502634519
 30
0.0
 10
104.6066274314631
 20
-160.7491744004708
 30
0.0
 10
104.8026141578839
 20
-160.6092146187844
 30
0.0
 10
105.0072820710725
 20
-160.4630607439979
 30
0.0
 10
105.137944404396
 20
-160.3697555510233
 30
0.0
 10
105.2707850365154
 20
-160.2748838051384
 30
0.0
 10
105.4059751493621
 20
-160.177854081152
 30
0.0
 10
105.5411652622088
 20
-160.0808243571663
 30
0.0
 10
105.6787048557827
 20
-159.9816366550792
 30
0.0
 10
105.8187651120154
 20
-159.8796995497008
 30
0.0
 10
105.9588253682487
 20
-159.7777624443231
 30
0.0
 10
106.1014062871407
 20
-159.6730759356547
 30
0.0
 10
106.2466790506231
 20
-159.5650485985054
 30
0.0
 10
106.3919518141056
 20
-159.4570212613567
 30
0.0
 10
106.5399164221785
 20
-159.3456530957276
 30
0.0
 10
106.6907440567736
 20
-159.2303526764278
 30
0.0
 10
106.8415716913687
 20
-159.1150522571279
 30
0.0
 10
106.9952623524861
 20
-158.9958195841585
 30
0.0
 10
107.1519872220574
 20
-158.8720632323286
 30
0.0
 10
107.3087120916281
 20
-158.7483068804986
 30
0.0
 10
107.4684711696534
 20
-158.6200268498087
 30
0.0
 10
107.6314356380637
 20
-158.4866317150691
 30
0.0
 10
107.7944001064741
 20
-158.3532365803295
 30
0.0
 10
107.9605699652696
 20
-158.2147263415402
 30
0.0
 10
108.1301163963825
 20
-158.0705095735114
 30
0.0
 10
108.2996628274955
 20
-157.9262928054826
 30
0.0
 10
108.4725858309253
 20
-157.7763695082143
 30
0.0
 10
108.6490565886037
 20
-157.6201482565166
 30
0.0
 10
109.1715104182199
 20
-157.1576503049298
 30
0.0
 10
109.6126932890903
 20
-156.6667367171594
 30
0.0
 10
109.9841037759513
 20
-156.15819685245
 30
0.0
 10
110.3555142628123
 20
-155.6496569877406
 30
0.0
 10
110.6571523656639
 20
-155.1234908460921
 30
0.0
 10
110.900516659243
 20
-154.5904877867493
 30
0.0
 10
111.1438809528221
 20
-154.0574847274065
 30
0.0
 10
111.3289714371275
 20
-153.5176447503686
 30
0.0
 10
111.4672866868968
 20
-152.9817572148815
 30
0.0
 10
111.6056019366661
 20
-152.4458696793937
 30
0.0
 10
111.6971419518981
 20
-151.9139345854562
 30
0.0
 10
111.7534053073303
 20
-151.3967412923134
 30
0.0
 10
111.8096686627624
 20
-150.8795479991705
 30
0.0
 10
111.8306553583936
 20
-150.3770965068218
 30
0.0
 10
111.827863968962
 20
-149.9001761745131
 30
0.0
 10
111.8250725795298
 20
-149.4232558422031
 30
0.0
 10
111.7985031050336
 20
-148.9718666699331
 30
0.0
 10
111.7596541202103
 20
-148.5567980169463
 30
0.0
 10
111.7208051353864
 20
-148.1417293639596
 30
0.0
 10
111.6696766402348
 20
-147.7629812302564
 30
0.0
 10
111.6177672094926
 20
-147.4313429750814
 30
0.0
 10
111.5658577787503
 20
-147.0997047199062
 30
0.0
 10
111.5131674124167
 20
-146.8151763432594
 30
0.0
 10
111.4711946852276
 20
-146.588547204385
 30
0.0
 10
111.435022254667
 20
-146.3931922789137
 30
0.0
 10
111.4173731335483
 20
-146.1810248340012
 30
0.0
 10
111.4152712697845
 20
-145.9566974786677
 30
0.0
 10
111.4131694060207
 20
-145.7323701233339
 30
0.0
 10
111.4266147996117
 20
-145.4958828575792
 30
0.0
 10
111.4526313984714
 20
-145.2518882904236
 30
0.0
 10
111.4786479973311
 20
-145.007893723268
 30
0.0
 10
111.51723580146
 20
-144.7563918547109
 30
0.0
 10
111.5654187587707
 20
-144.5020352937732
 30
0.0
 10
111.613601716082
 20
-144.2476787328356
 30
0.0
 10
111.6713798265763
 20
-143.9904674795167
 30
0.0
 10
111.735777038166
 20
-143.7350541428374
 30
0.0
 10
111.8001742497557
 20
-143.479640806158
 30
0.0
 10
111.8711905624428
 20
-143.2260253861175
 30
0.0
 10
111.9458499241397
 20
-142.9788604917358
 30
0.0
 10
112.0205092858366
 20
-142.7316955973545
 30
0.0
 10
112.0988116965433
 20
-142.4909812286324
 30
0.0
 10
112.1777811041748
 20
-142.2613699945894
 30
0.0
 10
112.2567505118063
 20
-142.0317587605462
 30
0.0
 10
112.3363869163614
 20
-141.8132506611825
 30
0.0
 10
112.4137142657544
 20
-141.6104983055181
 30
0.0
 10
112.4910416151473
 20
-141.4077459498536
 30
0.0
 10
112.5660599093782
 20
-141.2207493378887
 30
0.0
 10
112.6357930963614
 20
-141.0541610786431
 30
0.0
 10
112.6596976711104
 20
-141.0553851016722
 30
0.0
 10
112.6842454688981
 20
-141.0560779975208
 30
0.0
 10
112.7094154551495
 20
-141.0563534226247
 30
0.0
 10
112.7345854414016
 20
-141.0566288477287
 30
0.0
 10
112.7603776161168
 20
-141.0564868020873
 30
0.0
 10
112.7867709447208
 20
-141.0560409421362
 30
0.0
 10
112.8131642733242
 20
-141.0555950821851
 30
0.0
 10
112.8401587558164
 20
-141.0548454079244
 30
0.0
 10
112.8677333576218
 20
-141.0539055757888
 30
0.0
 10
112.8953079594273
 20
-141.0529657436532
 30
0.0
 10
112.9234626805459
 20
-141.0518357536434
 30
0.0
 10
112.9521764864016
 20
-141.050629262194
 30
0.0
 10
112.9808902922572
 20
-141.0494227707446
 30
0.0
 10
113.0101631828512
 20
-141.048139777856
 30
0.0
 10
113.0399741236065
 20
-141.0468939399633
 30
0.0
 10
113.0697850643618
 20
-141.0456481020706
 30
0.0
 10
113.1001340552799
 20
-141.0444394191738
 30
0.0
 10
113.1310000617837
 20
-141.0433815477082
 30
0.0
 10
113.1618660682882
 20
-141.0423236762426
 30
0.0
 10
113.1932490903792
 20
-141.0414166162079
 30
0.0
 10
113.2251280934817
 20
-141.0407740240399
 30
0.0
 10
113.2570070965841
 20
-141.0401314318719
 30
0.0
 10
113.2893820806975
 20
-141.0397533075702
 30
0.0
 10
113.3222320112468
 20
-141.0397533075702
 30
0.0
 10
113.3222320112468
 20
-141.0397533075702
 30
0.0
 10
113.3222978874862
 20
-141.0397533075702
 30
0.0
 10
113.3222978874862
 20
-141.0397533075702
 30
0.0
 10
113.3222978874862
 20
-141.0397533075702
 30
0.0
 10
113.3223637637257
 20
-141.0397533075702
 30
0.0
 10
113.3223637637257
 20
-141.0397533075702
 30
0.0
 10
113.3223637637257
 20
-141.0397533075702
 30
0.0
 10
113.3224296399651
 20
-141.0397533075702
 30
0.0
 10
113.3224296399651
 20
-141.0397533075702
 30
0.0
 10
113.3224296399651
 20
-141.0397533075702
 30
0.0
 10
113.3224955162045
 20
-141.0397533075702
 30
0.0
 10
113.3224955162045
 20
-141.0397533075702
 30
0.0
 10
113.3224955162045
 20
-141.0397533075702
 30
0.0
 10
113.322561392444
 20
-141.0397533075702
 30
0.0
 10
113.322561392444
 20
-141.0397533075702
 30
0.0
 10
113.322561392444
 20
-141.0397533075702
 30
0.0
 10
113.3226272686834
 20
-141.0397533075702
 30
0.0
 10
113.3226272686834
 20
-141.0397533075702
 30
0.0
 10
113.3226272686834
 20
-141.0397533075702
 30
0.0
 10
113.3226931449229
 20
-141.0397533075702
 30
0.0
 10
113.3226931449229
 20
-141.0397533075702
 30
0.0
 10
113.3226931449229
 20
-141.0397533075702
 30
0.0
 10
113.3227590211623
 20
-141.0397533075702
 30
0.0
 10
113.3227590211623
 20
-141.0397533075702
 30
0.0
 10
113.5140221821499
 20
-141.0397533075702
 30
0.0
 10
113.725370955409
 20
-141.0361131140823
 30
0.0
 10
113.9520568892972
 20
-141.0262811517567
 30
0.0
 10
114.1787428231853
 20
-141.0164491894312
 30
0.0
 10
114.4207659177023
 20
-141.0004254582683
 30
0.0
 10
114.6733777212043
 20
-140.9756583829174
 30
0.0
 10
114.9259895247063
 20
-140.9508913075665
 30
0.0
 10
115.1891900371932
 20
-140.9173808880282
 30
0.0
 10
115.4582308070218
 20
-140.8725755489522
 30
0.0
 10
115.7272715768497
 20
-140.8277702098762
 30
0.0
 10
116.0021526040198
 20
-140.7716699512627
 30
0.0
 10
116.2781254368876
 20
-140.7017231977618
 30
0.0
 10
116.5540982697553
 20
-140.6317764442608
 30
0.0
 10
116.8311629083207
 20
-140.5479831958723
 30
0.0
 10
117.1045709009403
 20
-140.4477918772467
 30
0.0
 10
117.37797889356
 20
-140.3476005586207
 30
0.0
 10
117.6477302402345
 20
-140.2310111697574
 30
0.0
 10
117.9090764893187
 20
-140.0954721353069
 30
0.0
 10
118.1704227384029
 20
-139.9599331008567
 30
0.0
 10
118.4233638898981
 20
-139.8054444208188
 30
0.0
 10
118.6631514921608
 20
-139.6294545198437
 30
0.0
 10
118.9029390944228
 20
-139.4534646188688
 30
0.0
 10
119.1295731474525
 20
-139.2559734969567
 30
0.0
 10
119.3383051996051
 20
-139.0344295787571
 30
0.0
 10
119.4606214384022
 20
-138.9046087612659
 30
0.0
 10
119.5746047313589
 20
-138.769927313263
 30
0.0
 10
119.6802307899311
 20
-138.6303364916434
 30
0.0
 10
119.7858568485033
 20
-138.4907456700238
 30
0.0
 10
119.8831256726909
 20
-138.3462454747875
 30
0.0
 10
119.9720129739518
 20
-138.1967871628304
 30
0.0
 10
120.0609002752127
 20
-138.0473288508731
 30
0.0
 10
120.1414060535468
 20
-137.8929124221945
 30
0.0
 10
120.2135060204106
 20
-137.7334891336904
 30
0.0
 10
120.2856059872745
 20
-137.5740658451862
 30
0.0
 10
120.349300142668
 20
-137.4096356968568
 30
0.0
 10
120.4045641980491
 20
-137.2401499455965
 30
0.0
 10
120.4598282534302
 20
-137.0706641943363
 30
0.0
 10
120.5066622087981
 20
-136.8961228401459
 30
0.0
 10
120.54504177561
 20
-136.7164771399209
 30
0.0
 10
120.5834213424226
 20
-136.5368314396956
 30
0.0
 10
120.6133465206785
 20
-136.3520813934356
 30
0.0
 10
120.6347930218363
 20
-136.1621782580362
 30
0.0
 10
120.656239522994
 20
-135.9722751226369
 30
0.0
 10
120.6692073470535
 20
-135.777218898098
 30
0.0
 10
120.6736722054707
 20
-135.5769608413153
 30
0.0
 10
120.6781370638885
 20
-135.3767027845328
 30
0.0
 10
120.6740989566645
 20
-135.1712428955058
 30
0.0
 10
120.6615335952554
 20
-134.9605324311306
 30
0.0
  0
ENDSEC
  0
SECTION
  2
OBJECTS
  0
DICTIONARY
  5
C
330
0
100
AcDbDictionary
  3
ACAD_GROUP
350
D
  3
ACAD_LAYOUT
350
1A
  3
ACAD_MATERIAL
350
3B
  3
ACAD_MLEADERSTYLE
350
44
  3
ACAD_MLINESTYLE
350
17
  3
ACAD_PLOTSETTINGS
350
19
  3
ACAD_VISUALSTYLE
350
2A
  3
ACDBVARIABLEDICTIONARY
350
42
1001
ACAD
1000
TREAT_AS_HARD
1070
     0
  0
DICTIONARY
  5
D
102
{ACAD_REACTORS
330
C
102
}
330
C
100
AcDbDictionary
1001
ACAD
1000
TREAT_AS_HARD
1070
     0
  0
DICTIONARY
  5
1A
102
{ACAD_REACTORS
330
C
102
}
330
C
100
AcDbDictionary
1001
ACAD
1000
TREAT_AS_HARD
1070
     0
  0
DICTIONARY
  5
3B
102
{ACAD_REACTORS
330
C
102
}
330
C
100
AcDbDictionary
  3
BYBLOCK
350
3D
  3
BYLAYER
350
3C
  3
GLOBAL
350
3E
1001
ACAD
1000
TREAT_AS_HARD
1070
     0
  0
DICTIONARY
  5
44
102
{ACAD_REACTORS
330
C
102
}
330
C
100
AcDbDictionary
1001
ACAD
1000
TREAT_AS_HARD
1070
     0
  0
DICTIONARY
  5
17
102
{ACAD_REACTORS
330
C
102
}
330
C
100
AcDbDictionary
  3
STANDARD
350
18
1001
ACAD
1000
TREAT_AS_HARD
1070
     0
  0
DICTIONARY
  5
19
102
{ACAD_REACTORS
330
C
102
}
330
C
100
AcDbDictionary
1001
ACAD
1000
TREAT_AS_HARD
1070
     0
  0
DICTIONARY
  5
2A
102
{ACAD_REACTORS
330
C
102
}
330
C
100
AcDbDictionary
  3
2DWIREFRAME
350
2F
  3
3DWIREFRAME
350
30
  3
3D_HIDDEN
350
31
  3
BASIC
350
32
  3
BRIGHTEN
350
36
  3
COLORCHANGE
350
3A
  3
CONCEPTUAL
350
34
  3
DIM
350
35
  3
FACEPATTERN
350
39
  3
FLAT
350
2B
  3
FLATWITHEDGES
350
2C
  3
GOURAUD
350
2D
  3
GOURAUDWITHEDGES
350
2E
  3
LINEPATTERN
350
38
  3
REALISTIC
350
33
  3
THICKEN
350
37
1001
ACAD
1000
TREAT_AS_HARD
1070
     0
  0
DICTIONARY
  5
42
102
{ACAD_REACTORS
330
C
102
}
330
C
100
AcDbDictionary
  3
DIMASSOC
350
45
  3
HIDETEXT
350
46
1001
ACAD
1000
TREAT_AS_HARD
1070
     0
  0
MATERIAL
  5
3D
102
{ACAD_REACTORS
330
3B
102
}
102
{ACAD_XDICTIONARY
360
49
102
}
330
3B
100
AcDbMaterial
  1
ByBlock
  0
MATERIAL
  5
3C
102
{ACAD_REACTORS
330
3B
102
}
102
{ACAD_XDICTIONARY
360
47
102
}
330
3B
100
AcDbMaterial
  1
ByLayer
  0
MATERIAL
  5
3E
102
{ACAD_REACTORS
330
3B
102
}
102
{ACAD_XDICTIONARY
360
4B
102
}
330
3B
100
AcDbMaterial
  1
Global
  0
MLINESTYLE
  5
18
102
{ACAD_REACTORS
330
17
102
}
330
17
100
AcDbMlineStyle
  2
Standard
 70
     0
  3

 62
   256
 51
90.0
 52
90.0
 71
     2
 49
0.5
 62
   256
  6
BYLAYER
 49
-0.5
 62
   256
  6
BYLAYER
  0
ACAD_PROXY_OBJECT
  5
2F
102
{ACAD_REACTORS
330
2A
102
}
330
2A
100
AcDbZombieObject
 90
      499
 91
      501
 93
      436
310
42CC9915DA5C99599C985B595049028333333333333E3BF0000000000000FB0107901411070040501600405405064090741402480A0340
1001
ACAD
1000
AcDbSavedByObjectVersion
1070
     0
  0
ACAD_PROXY_OBJECT
  5
30
102
{ACAD_REACTORS
330
2A
102
}
330
2A
100
AcDbZombieObject
 90
      499
 91
      501
 93
      436
310
42CCD915DA5C99599C985B595059028333333333333E3BF0000000000000FB0107901411070040501600405405064090741402480A0340
1001
ACAD
1000
AcDbSavedByObjectVersion
1070
     0
  0
ACAD_PROXY_OBJECT
  5
31
102
{ACAD_REACTORS
330
2A
102
}
330
2A
100
AcDbZombieObject
 90
      499
 91
      501
 93
      500
310
424CD108121A5919195B90640502408333333333333E3BF0000000000000FB01079024090700405020000000000001110200405405064090740C02480A0340
1001
ACAD
1000
AcDbSavedByObjectVersion
1070
     0
  0
ACAD_PROXY_OBJECT
  5
32
102
{ACAD_REACTORS
330
2A
102
}
330
2A
100
AcDbZombieObject
 90
      499
 91
      501
 93
      388
310
4150985CDA58D07406404333333333333E3BF0000000000000FB0107A41107004050150841D405064090741402480A0350
1001
ACAD
1000
AcDbSavedByObjectVersion
1070
     0
  0
ACAD_PROXY_OBJECT
  5
36
102
{ACAD_REACTORS
330
2A
102
}
330
2A
100
AcDbZombieObject
 90
      499
 91
      501
 93
      428
310
42109C9A59DA1D195B90C409028333333333333E3BF0000000000000FB010790141107004050150841D405064090741402480A029950
1001
ACAD
1000
AcDbSavedByObjectVersion
1070
     0
  0
ACAD_PROXY_OBJECT
  5
3A
102
{ACAD_REACTORS
330
2A
102
}
330
2A
100
AcDbZombieObject
 90
      499
 91
      501
 93
      452
310
42D0DBDB1BDC90DA185B99D95104090240C333333333333E3BF0000000000000FB0108901411070040501508421405064090741402480A0350
1001
ACAD
1000
AcDbSavedByObjectVersion
1070
     0
  0
ACAD_PROXY_OBJECT
  5
34
102
{ACAD_REACTORS
330
2A
102
}
330
2A
100
AcDbZombieObject
 90
      499
 91
      501
 93
      500
310
4290DBDB98D95C1D1D585B10940D028333333333333E3BF0000000000000FB0107902409070040501000000000000111010841D405064090740C02480A0340
1001
ACAD
1000
AcDbSavedByObjectVersion
1070
     0
  0
ACAD_PROXY_OBJECT
  5
35
102
{ACAD_REACTORS
330
2A
102
}
330
2A
100
AcDbZombieObject
 90
      499
 91
      501
 93
      412
310
40D11A5B50B409028333333333333E3BF0000000000000FB010790141107004050150841D405064090741402480A02677FFFFFD0
1001
ACAD
1000
AcDbSavedByObjectVersion
1070
     0
  0
ACAD_PROXY_OBJECT
  5
39
102
{ACAD_REACTORS
330
2A
102
}
330
2A
100
AcDbZombieObject
 90
      499
 91
      501
 93
      444
310
42D19858D95C185D1D195C9B90F409028333333333333E3BF0000000000000FB010790141107004050150841D405064090741402480A0350
1001
ACAD
1000
AcDbSavedByObjectVersion
1070
     0
  0
ACAD_PROXY_OBJECT
  5
2B
102
{ACAD_REACTORS
330
2A
102
}
330
2A
100
AcDbZombieObject
 90
      499
 91
      501
 93
      388
310
41119B185D240901404333333333333E3BF0000000000000F9010740A41107004050150841D405064090741402480A1B50
1001
ACAD
1000
AcDbSavedByObjectVersion
1070
     0
  0
ACAD_PROXY_OBJECT
  5
2C
102
{ACAD_REACTORS
330
2A
102
}
330
2A
100
AcDbZombieObject
 90
      499
 91
      501
 93
      476
310
43519B185D15DA5D1A115919D95CD0140901404333333333333E3BF0000000000000F9010740901411070040501600405405064090741402480A1B50
1001
ACAD
1000
AcDbSavedByObjectVersion
1070
     0
  0
ACAD_PROXY_OBJECT
  5
2D
102
{ACAD_REACTORS
330
2A
102
}
330
2A
100
AcDbZombieObject
 90
      499
 91
      501
 93
      412
310
41D1DBDD5C985D5910240902404333333333333E3BF0000000000000F9010740A411070040501641D405064090741402480A1B50
1001
ACAD
1000
AcDbSavedByObjectVersion
1070
     0
  0
ACAD_PROXY_OBJECT
  5
2E
102
{ACAD_REACTORS
330
2A
102
}
330
2A
100
AcDbZombieObject
 90
      499
 91
      501
 93
      500
310
4411DBDD5C985D5915DA5D1A115919D95CD0340902404333333333333E3BF0000000000000F9010740901411070040501600405405064090741402480A1B50
1001
ACAD
1000
AcDbSavedByObjectVersion
1070
     0
  0
ACAD_PROXY_OBJECT
  5
38
102
{ACAD_REACTORS
330
2A
102
}
330
2A
100
AcDbZombieObject
 90
      499
 91
      501
 93
      444
310
42D31A5B995C185D1D195C9B90E409028333333333333E3BF0000000000000FB010790141107004050750841D405064090741402483A0350
1001
ACAD
1000
AcDbSavedByObjectVersion
1070
     0
  0
ACAD_PROXY_OBJECT
  5
33
102
{ACAD_REACTORS
330
2A
102
}
330
2A
100
AcDbZombieObject
 90
      499
 91
      501
 93
      420
310
425499585B1A5CDD1A58D08409028333333333333E3BF0000000000000FB01079019070040501508421405064090741402480A1B40
1001
ACAD
1000
AcDbSavedByObjectVersion
1070
     0
  0
ACAD_PROXY_OBJECT
  5
37
102
{ACAD_REACTORS
330
2A
102
}
330
2A
100
AcDbZombieObject
 90
      499
 91
      501
 93
      412
310
41D51A1A58DAD95B90D409028333333333333E3BF0000000000000FB010790141107004050150C41D405064090741402480A0350
1001
ACAD
1000
AcDbSavedByObjectVersion
1070
     0
  0
DICTIONARYVAR
  5
45
102
{ACAD_REACTORS
330
42
102
}
330
42
100
DictionaryVariables
280
     0
  1
2
  0
DICTIONARYVAR
  5
46
102
{ACAD_REACTORS
330
42
102
}
330
42
100
DictionaryVariables
280
     0
  1
1
  0
DICTIONARY
  5
49
330
3D
100
AcDbDictionary
  3
ACAD_XREC_ROUNDTRIP
360
4A
1001
ACAD
1000
TREAT_AS_HARD
1070
     1
  0
DICTIONARY
  5
47
330
3C
100
AcDbDictionary
  3
ACAD_XREC_ROUNDTRIP
360
48
1001
ACAD
1000
TREAT_AS_HARD
1070
     1
  0
DICTIONARY
  5
4B
330
3E
100
AcDbDictionary
  3
ACAD_XREC_ROUNDTRIP
360
4C
1001
ACAD
1000
TREAT_AS_HARD
1070
     1
  0
XRECORD
  5
4A
102
{ACAD_REACTORS
330
49
102
}
330
49
100
AcDbXrecord
102
MATERIAL
148
0.0
149
0.0
149
0.0
 93
        0
 94
      127
282
     0
 72
     1
 77
     1
171
     1
175
     1
179
     1
273
     0
  0
XRECORD
  5
48
102
{ACAD_REACTORS
330
47
102
}
330
47
100
AcDbXrecord
102
MATERIAL
148
0.0
149
0.0
149
0.0
 93
        0
 94
      127
282
     0
 72
     1
 77
     1
171
     1
175
     1
179
     1
273
     0
  0
XRECORD
  5
4C
102
{ACAD_REACTORS
330
4B
102
}
330
4B
100
AcDbXrecord
102
MATERIAL
148
0.0
149
0.0
149
0.0
 93
        0
 94
      127
282
     0
 72
     1
 77
     1
171
     1
175
     1
179
     1
273
     0
  0
ENDSEC
  0
EOF
